<?xml version="1.0" encoding="UTF-8"?>
<svg version="1.1" xmlns="http://www.w3.org/2000/svg" width="858" height="153">
<path d="M0 0 C283.14 0 566.28 0 858 0 C858 50.49 858 100.98 858 153 C574.86 153 291.72 153 0 153 C0 102.51 0 52.02 0 0 Z " fill="#D1AD37" transform="translate(0,0)"/>
<path d="M0 0 C57.09 0 114.18 0 173 0 C173 49.17 173 98.34 173 149 C164.09 149 155.18 149 146 149 C146 112.37 146 75.74 146 38 C139.74961631 43.39450711 139.74961631 43.39450711 133.96484375 49.12109375 C133.30033203 49.82943359 132.63582031 50.53777344 131.95117188 51.26757812 C131.28666016 51.98365234 130.62214844 52.69972656 129.9375 53.4375 C129.26912109 54.14970703 128.60074219 54.86191406 127.91210938 55.59570312 C124.0309079 59.74847554 120.25738322 63.97929977 116.52954102 68.26977539 C114.76442656 70.26648187 112.91700162 72.14910188 111 74 C108.47912102 76.48720312 106.0647546 79.00755353 103.75 81.6875 C102.50149979 83.12630279 101.25123395 84.56357393 100 86 C99.30221436 86.80171631 99.30221436 86.80171631 98.59033203 87.61962891 C97.00946344 89.42385413 95.41247782 91.2127136 93.8125 93 C93.30106445 93.58869873 92.78962891 94.17739746 92.26269531 94.78393555 C90.76953125 96.4375 90.76953125 96.4375 88 99 C84 99 84 99 81.23046875 96.4375 C80.20487994 95.3017392 79.19111076 94.15522745 78.1875 93 C77.65415039 92.40421143 77.12080078 91.80842285 76.57128906 91.19458008 C75.0352403 89.47341176 73.5145297 87.74010912 72 86 C71.32066406 85.22011719 70.64132813 84.44023438 69.94140625 83.63671875 C68.83972655 82.36711559 67.73939626 81.09633984 66.640625 79.82421875 C64.26724379 77.18524488 61.74017454 74.71465128 59.1875 72.25 C57.29097086 70.29928431 55.50528958 68.30750988 53.72265625 66.25390625 C49.45724841 61.34260355 44.99194994 56.63227577 40.51757812 51.91210938 C36.96889505 48.15145553 33.53418597 44.34171328 30.24633789 40.34985352 C29.02106501 38.86312723 29.02106501 38.86312723 27 38 C27 74.63 27 111.26 27 149 C18.09 149 9.18 149 0 149 C0 99.83 0 50.66 0 0 Z " fill="#082A49" transform="translate(39,0)"/>
<path d="M0 0 C12.87 0 25.74 0 39 0 C39 49.17 39 98.34 39 149 C48.24 149 57.48 149 67 149 C67 131.18 67 113.36 67 95 C67.33 95 67.66 95 68 95 C68.33 112.49 68.66 129.98 69 148 C71.31 148.33 73.62 148.66 76 149 C76 123.26 76 97.52 76 71 C80.15529195 73.07764597 82.15595827 75.03134002 85.25 78.4375 C86.14203125 79.40558594 87.0340625 80.37367187 87.953125 81.37109375 C90 84 90 84 90 87 C91.98 87.495 91.98 87.495 94 88 C94 88.99 94 89.98 94 91 C91.39659931 92.84142976 88.77966898 94.55665881 86.0078125 96.1328125 C83.78255695 97.62525297 82.43647069 98.72160993 81 101 C80.54761821 105.47476444 80.83508416 109.65258214 82 114 C83.485 114.99 83.485 114.99 85 116 C85 115.34 85 114.68 85 114 C85.94875 113.731875 86.8975 113.46375 87.875 113.1875 C91.25267273 112.25013412 91.25267273 112.25013412 93 109 C93.66 109 94.32 109 95 109 C95.02578125 110.03898437 95.0515625 111.07796875 95.078125 112.1484375 C95.49251211 123.76801957 96.75233609 132.92556661 105.63671875 141.2578125 C109.05190852 143.77545653 112.70378398 145.265014 116.6796875 146.69921875 C119 148 119 148 121 153 C81.07 153 41.14 153 0 153 C0 102.51 0 52.02 0 0 Z " fill="#D3AE37" transform="translate(0,0)"/>
<path d="M0 0 C3.40636942 1.70318471 4.77807012 2.55188766 7.20703125 5.1953125 C7.79419922 5.82953125 8.38136719 6.46375 8.98632812 7.1171875 C9.58896484 7.77976562 10.19160156 8.44234375 10.8125 9.125 C11.40353516 9.764375 11.99457031 10.40375 12.60351562 11.0625 C15.61964406 14.33846938 18.58235842 17.65510929 21.50390625 21.015625 C24.95258061 24.97444689 28.51984653 28.80885059 32.125 32.625 C33.43772927 34.02061771 34.75022461 35.4164555 36.0625 36.8125 C36.71734375 37.50859375 37.3721875 38.2046875 38.046875 38.921875 C41.08027687 42.14941459 44.10554309 45.3844146 47.125 48.625 C47.64465332 49.18010254 48.16430664 49.73520508 48.69970703 50.30712891 C51.92743196 53.77511543 54.99620403 57.33602909 58 61 C61.22548153 59.59321194 63.25616875 57.93721445 65.64453125 55.3671875 C66.32193359 54.64273438 66.99933594 53.91828125 67.69726562 53.171875 C68.39529297 52.41390625 69.09332031 51.6559375 69.8125 50.875 C70.49892578 50.14023438 71.18535156 49.40546875 71.89257812 48.6484375 C77.11231492 43.03857847 82.19135328 37.315124 87.14453125 31.46875 C87.69496094 30.8190625 88.24539062 30.169375 88.8125 29.5 C89.37582031 28.8296875 89.93914062 28.159375 90.51953125 27.46875 C92 26 92 26 94 26 C94.26425781 25.40703125 94.52851563 24.8140625 94.80078125 24.203125 C96.04370425 21.91970946 97.30401646 20.52573277 99.1875 18.75 C101.7574649 16.25984768 104.16886874 13.71526802 106.5 11 C113.35409654 3.07833537 113.35409654 3.07833537 117 0 C117.66 0 118.32 0 119 0 C119.04626195 13.26459209 119.08183788 26.52916512 119.10362434 39.79382133 C119.1140787 45.95258297 119.12826797 52.11128957 119.15087891 58.27001953 C119.17254846 64.20924549 119.18455617 70.14841839 119.18975449 76.08768082 C119.19346086 78.35798097 119.20069805 80.62827809 119.21146011 82.89855576 C119.22589677 86.06899124 119.22798123 89.23920511 119.22705078 92.40966797 C119.23424133 93.35625275 119.24143188 94.30283752 119.24884033 95.27810669 C119.246091 96.13909973 119.24334167 97.00009277 119.24050903 97.88717651 C119.24235262 98.637516 119.24419621 99.38785549 119.24609566 100.16093254 C119 102 119 102 117 104 C116.35232207 106.57061311 116.35232207 106.57061311 116 109 C112.535 109.495 112.535 109.495 109 110 C109 84.59 109 59.18 109 33 C104.12610568 37.1776237 100.53735587 40.52479276 96.67578125 45.36328125 C94.79467546 47.20053842 93.5667527 47.61414829 91 48 C91 49.65 91 51.3 91 53 C91.556875 53.061875 92.11375 53.12375 92.6875 53.1875 C95.96489609 54.33901755 97.6195768 56.5034586 100 59 C100.928125 59.61875 101.85625 60.2375 102.8125 60.875 C105 63 105 63 105.5 66.1875 C104.90487367 70.72533828 103.62401975 74.73694816 102 79 C101.21753906 78.566875 100.43507813 78.13375 99.62890625 77.6875 C98.61699219 77.130625 97.60507813 76.57375 96.5625 76 C95.55316406 75.443125 94.54382813 74.88625 93.50390625 74.3125 C91.32355869 72.92262248 91.32355869 72.92262248 90 73 C90 62.44 90 51.88 90 41 C83.31764679 46.80608922 83.31764679 46.80608922 77.3125 53.0625 C76.56742187 53.90683594 75.82234375 54.75117187 75.0546875 55.62109375 C72.66644744 58.38618537 70.30957962 61.1689024 68 64 C72.62 64 77.24 64 82 64 C82 67.63 82 71.26 82 75 C75.75203746 75.02464455 69.50410297 75.04283343 63.25610352 75.05493164 C61.12881986 75.05997298 59.00153969 75.06680591 56.87426758 75.07543945 C53.82372174 75.08751379 50.77322155 75.09323014 47.72265625 75.09765625 C46.28672874 75.10539818 46.28672874 75.10539818 44.8217926 75.11329651 C43.94095505 75.11337204 43.06011749 75.11344757 42.15258789 75.11352539 C41.37315323 75.115746 40.59371857 75.11796661 39.79066467 75.12025452 C38 75 38 75 37 74 C36.85742811 70.66381769 36.95771843 67.34024394 37 64 C43.435 63.505 43.435 63.505 50 63 C44.48592096 56.77442689 38.86511402 50.79718731 32.87109375 45.03125 C31 43 31 43 31 41 C30.34 41 29.68 41 29 41 C29.02094727 41.8878418 29.04189453 42.77568359 29.06347656 43.69042969 C29.13175677 46.99294455 29.1818487 50.2947067 29.21972656 53.59765625 C29.23980982 55.02551121 29.26708252 56.45328425 29.30175781 57.88085938 C29.35042669 59.93640368 29.37299967 61.99085855 29.390625 64.046875 C29.41157227 65.28276367 29.43251953 66.51865234 29.45410156 67.79199219 C29 71 29 71 27.17871094 73.38769531 C24.47916001 75.3854356 22.30901121 75.6991808 19 76 C19 76.66 19 77.32 19 78 C17.0859375 77.37890625 17.0859375 77.37890625 15 76 C13.4544229 71.62086487 13.24296344 67.56832407 14 63 C17.14599502 58.63425259 21.11969871 54.90702955 26.33203125 53.265625 C26.88246094 53.17796875 27.43289062 53.0903125 28 53 C28 52.01 28 51.02 28 50 C27.1028125 49.9071875 27.1028125 49.9071875 26.1875 49.8125 C23.11633475 48.67178148 22.65962155 46.79618702 21 44 C19.5193711 42.21585537 17.99670708 40.4658984 16.4375 38.75 C15.25994141 37.44289063 15.25994141 37.44289063 14.05859375 36.109375 C12.17908195 33.95297352 12.17908195 33.95297352 10 33 C10 58.74 10 84.48 10 111 C6.66666667 111 3.33333333 111 0 111 C0 74.37 0 37.74 0 0 Z " fill="#C6A638" transform="translate(66,38)"/>
<path d="M0 0 C35.97 0 71.94 0 109 0 C105.01499375 5.31334166 101.17445035 10.13008674 96.625 14.875 C92.08547722 19.67726251 87.79281397 24.55578714 83.78125 29.81640625 C81.67750299 32.39534174 79.3673975 34.65954301 77 37 C74.50139729 39.60678742 72.03193802 42.2406045 69.5625 44.875 C68.91990234 45.55691406 68.27730469 46.23882812 67.61523438 46.94140625 C63.62149433 51.19869259 59.76673108 55.54046985 56 60 C51.78421936 59.17824265 50.40540915 57.5180228 47.75 54.125 C47.04359375 53.24070313 46.3371875 52.35640625 45.609375 51.4453125 C44 49 44 49 44 46 C43.42894531 45.91878906 42.85789063 45.83757813 42.26953125 45.75390625 C39.28034845 44.76094191 37.86970833 43.19722906 35.6875 40.9375 C34.89472656 40.11765625 34.10195312 39.2978125 33.28515625 38.453125 C30.77478242 35.75822797 28.33688124 33.01638024 25.9375 30.22265625 C23.54676408 27.48005798 21.08877863 24.80173429 18.625 22.125 C17.67833473 21.09379653 16.73172003 20.06254663 15.78515625 19.03125 C14.00384462 17.09136646 12.21962811 15.15430017 10.43359375 13.21875 C9.65113281 12.3628125 8.86867188 11.506875 8.0625 10.625 C7.37285156 9.87476563 6.68320313 9.12453125 5.97265625 8.3515625 C3.77307186 5.72948369 1.89845838 2.84768758 0 0 Z " fill="#D2AE37" transform="translate(71,0)"/>
<path d="M0 0 C4.95 0 9.9 0 15 0 C16.17755859 2.37251953 16.17755859 2.37251953 17.37890625 4.79296875 C18.43963091 6.92471472 19.50086155 9.05620896 20.5625 11.1875 C21.1080957 12.28344482 21.65369141 13.37938965 22.21582031 14.50854492 C25.62633498 21.33210132 29.12865577 28.06984268 32.890625 34.70703125 C34 37 34 37 34 40 C34.66 40 35.32 40 36 40 C36.24492187 39.16210938 36.48984375 38.32421875 36.7421875 37.4609375 C38.15013784 33.58688779 40.04950011 30.16537788 42.125 26.625 C45.83467407 20.18240116 49.26241819 13.6454346 52.52392578 6.96533203 C54.91080084 2.08919916 54.91080084 2.08919916 56 1 C60.95 1 65.9 1 71 1 C71 23.77 71 46.54 71 70 C67.04 70 63.08 70 59 70 C59 54.49 59 38.98 59 23 C58.34 23 57.68 23 57 23 C56.67128906 24.17949219 56.67128906 24.17949219 56.3359375 25.3828125 C54.56901312 30.16694108 52.12826936 34.44157821 49.625 38.875 C45.53870765 46.15386861 45.53870765 46.15386861 41.7109375 53.5703125 C40 57 40 57 39 58 C36.66702567 58.04092937 34.33294775 58.04241723 32 58 C26 47 20 36 14 25 C13.67 40.18 13.34 55.36 13 71 C8.71 71 4.42 71 0 71 C0 47.57 0 24.14 0 0 Z " fill="#0E2E49" transform="translate(248,2)"/>
<path d="M0 0 C0.66 0 1.32 0 2 0 C3.48046875 1.50390625 3.48046875 1.50390625 5.1875 3.5625 C7.55162105 6.34843518 9.94994909 9.00800578 12.5625 11.5625 C15.91126204 14.85822735 19.12783737 18.27565725 22 22 C22 22.33 22 22.66 22 23 C17.38 23 12.76 23 8 23 C8.33 26.3 8.66 29.6 9 33 C30.78 33.495 30.78 33.495 53 34 C53 30.37 53 26.74 53 23 C48.38 23 43.76 23 39 23 C40.25598561 19.23204317 42.14851563 17.75563615 45 15 C46.90079289 12.98182481 48.76165905 10.92774649 50.625 8.875 C52.41059588 6.91084453 54.20248706 4.9533345 56 3 C56.56460938 2.38382812 57.12921875 1.76765625 57.7109375 1.1328125 C59 0 59 0 61 0 C61.04965857 5.97736416 61.08584173 11.95460663 61.10986328 17.93212891 C61.11988386 19.96307468 61.13350401 21.99400617 61.15087891 24.02490234 C61.17530117 26.95413758 61.18652279 29.88318106 61.1953125 32.8125 C61.20563507 33.71178223 61.21595764 34.61106445 61.22659302 35.53759766 C61.22831077 45.3201045 59.23319865 53.69913068 52.1875 60.8359375 C47.49559859 65 47.49559859 65 45 65 C45 65.66 45 66.32 45 67 C44.45730469 67.17015625 43.91460937 67.3403125 43.35546875 67.515625 C38.76887036 68.91252926 38.76887036 68.91252926 35.5 72.1875 C34 74 34 74 32.15625 74.4296875 C29.95227231 74.56543975 28.14466592 74.53388492 26 74 C24.98648336 72.34151823 23.98879205 70.67334039 23 69 C20.87067281 68.0338304 20.87067281 68.0338304 18.375 67.25 C11.63040064 64.78486866 6.24237457 60.396988 2.94265747 53.92669678 C0.13204061 47.43140321 -0.54267435 41.99132855 -0.390625 34.9609375 C-0.38496521 33.95406891 -0.37930542 32.94720032 -0.37347412 31.90982056 C-0.35129392 28.73103898 -0.3011328 25.55343406 -0.25 22.375 C-0.22991125 20.2044435 -0.21166468 18.03386912 -0.1953125 15.86328125 C-0.15148987 10.57512736 -0.08476536 5.28764778 0 0 Z " fill="#0E2D4A" transform="translate(95,79)"/>
<path d="M0 0 C7.82214463 4.53234704 12.43057099 10.15000124 14.83203125 18.87109375 C14.83203125 22.50109375 14.83203125 26.13109375 14.83203125 29.87109375 C1.96203125 29.87109375 -10.90796875 29.87109375 -24.16796875 29.87109375 C-21.41249155 37.09748751 -21.41249155 37.09748751 -15.91796875 41.05859375 C-10.67710781 42.60702994 -6.78716825 42.39059051 -1.98046875 39.87109375 C-1.34753906 39.49984375 -0.71460938 39.12859375 -0.0625 38.74609375 C1.83203125 37.87109375 1.83203125 37.87109375 5.83203125 37.87109375 C8.51953125 39.12109375 8.51953125 39.12109375 10.83203125 40.87109375 C11.4765625 42.98046875 11.4765625 42.98046875 11.83203125 44.87109375 C10.46328645 45.83834007 9.08667521 46.79445815 7.70703125 47.74609375 C6.94132813 48.27976563 6.175625 48.8134375 5.38671875 49.36328125 C-2.01501195 53.73188683 -9.79591682 53.70396109 -18.16796875 52.87109375 C-25.08569429 50.84551137 -30.35447433 46.98460199 -34.16796875 40.87109375 C-38.27544395 33.36211565 -39.41025462 26.09361492 -37.73046875 17.6796875 C-35.40385314 10.24905891 -29.45298703 4.23568978 -23.16796875 -0.12890625 C-16.24278269 -2.4373016 -6.90172444 -2.45943078 0 0 Z " fill="#102E49" transform="translate(774.16796875,20.12890625)"/>
<path d="M0 0 C4.50765341 3.11116471 6.89019499 6.67058498 8.625 11.875 C8.710409 14.82464113 8.74082927 17.75003019 8.72265625 20.69921875 C8.7212413 21.56061966 8.71982635 22.42202057 8.71836853 23.30952454 C8.7127714 26.06055169 8.70021946 28.81149744 8.6875 31.5625 C8.68248463 33.4277332 8.67792179 35.29296767 8.67382812 37.15820312 C8.66280292 41.73050011 8.64554027 46.30273625 8.625 50.875 C4.665 50.875 0.705 50.875 -3.375 50.875 C-3.375 48.895 -3.375 46.915 -3.375 44.875 C-4.035 44.875 -4.695 44.875 -5.375 44.875 C-5.705 45.865 -6.035 46.855 -6.375 47.875 C-7.035 47.875 -7.695 47.875 -8.375 47.875 C-8.705 48.865 -9.035 49.855 -9.375 50.875 C-15.64078534 52.96359511 -24.27217926 53.09432155 -30.5 50.6875 C-35.64107461 47.44638774 -37.965993 43.74586248 -39.375 37.875 C-39.82574247 33.6680703 -39.68186032 31.47691832 -37.75 27.6875 C-34.48574335 23.82193291 -31.17318961 21.47439654 -26.375 19.875 C-24.67483156 19.79321886 -22.97163703 19.76750499 -21.26953125 19.77734375 C-20.28662109 19.78056641 -19.30371094 19.78378906 -18.29101562 19.78710938 C-16.75477539 19.79967773 -16.75477539 19.79967773 -15.1875 19.8125 C-13.63385742 19.81926758 -13.63385742 19.81926758 -12.04882812 19.82617188 C-9.49082734 19.8379599 -6.93294267 19.85441485 -4.375 19.875 C-4.643125 18.59625 -4.91125 17.3175 -5.1875 16 C-5.33832031 15.28070313 -5.48914063 14.56140625 -5.64453125 13.8203125 C-6.29808838 11.50453451 -6.29808838 11.50453451 -9.375 9.875 C-17.26913275 9.18502439 -24.75618085 9.77325679 -32.375 11.875 C-35.41664398 6.52170659 -35.41664398 6.52170659 -35.2421875 3.8125 C-34.01277787 1.06571091 -32.72448232 0.69397952 -29.9375 -0.375 C-20.90119501 -3.33985301 -8.71094027 -4.45642474 0 0 Z " fill="#12304A" transform="translate(372.375,21.125)"/>
<path d="M0 0 C5.67017576 4.21818683 7.83345859 7.78553203 10.08984375 14.5546875 C10.08984375 18.8446875 10.08984375 23.1346875 10.08984375 27.5546875 C-2.78015625 27.5546875 -15.65015625 27.5546875 -28.91015625 27.5546875 C-25.92584505 35.04210309 -25.92584505 35.04210309 -19.91015625 39.5546875 C-16.24206017 40.23677148 -12.63684068 40.48174528 -8.91015625 40.5546875 C-8.91015625 39.8946875 -8.91015625 39.2346875 -8.91015625 38.5546875 C-7.67131306 37.82701747 -6.41847284 37.12313935 -5.16015625 36.4296875 C-4.4640625 36.03523438 -3.76796875 35.64078125 -3.05078125 35.234375 C-0.91015625 34.5546875 -0.91015625 34.5546875 1.21484375 35.34765625 C1.83359375 35.74597656 2.45234375 36.14429688 3.08984375 36.5546875 C3.83234375 37.0290625 4.57484375 37.5034375 5.33984375 37.9921875 C5.91734375 38.5078125 6.49484375 39.0234375 7.08984375 39.5546875 C7.08984375 40.5446875 7.08984375 41.5346875 7.08984375 42.5546875 C5.296875 44.08984375 5.296875 44.08984375 2.90234375 45.6171875 C2.12503906 46.12378906 1.34773437 46.63039062 0.546875 47.15234375 C-7.21778018 51.58399909 -15.68341553 51.54664462 -24.38671875 50.16015625 C-30.94204631 48.13610093 -35.80971836 43.01214988 -39.30078125 37.265625 C-42.90572804 29.47183158 -43.44493325 20.29966376 -40.72265625 12.1171875 C-37.40637904 5.59898746 -32.27981724 -0.58430416 -25.140625 -3.05859375 C-16.4874326 -4.55888455 -7.69022826 -4.5296852 0 0 Z " fill="#0D2C4A" transform="translate(622.91015625,22.4453125)"/>
<path d="M0 0 C4.29 0 8.58 0 13 0 C13 8.91 13 17.82 13 27 C13.66 27 14.32 27 15 27 C15.309375 26.13375 15.309375 26.13375 15.625 25.25 C17.57427298 22.06028057 19.74476972 20.81932039 23 19 C26.65625 18.46875 26.65625 18.46875 30.5 18.5 C32.40265625 18.48453125 32.40265625 18.48453125 34.34375 18.46875 C39.72177431 19.25017234 43.44859994 21.98127566 47 26 C49.81819124 31.84179401 50.42276454 37.57771254 50.29296875 43.97265625 C50.28872391 44.78117538 50.28447906 45.58969452 50.28010559 46.42271423 C50.26350035 48.96966873 50.22588533 51.5157904 50.1875 54.0625 C50.17242958 55.80402492 50.15874534 57.54556241 50.14648438 59.28710938 C50.11365684 63.52505361 50.06200455 67.76238632 50 72 C45.71 72 41.42 72 37 72 C36.98541748 70.99622314 36.97083496 69.99244629 36.95581055 68.95825195 C36.89767948 65.2212425 36.82044835 61.48482631 36.73754883 57.74829102 C36.7043689 56.13348037 36.67631542 54.51855569 36.65356445 52.90356445 C36.61988975 50.57714408 36.56757037 48.25176217 36.51171875 45.92578125 C36.50213387 44.84892815 36.50213387 44.84892815 36.49235535 43.75032043 C36.36456144 39.35802666 35.69717057 36.49991467 33 33 C29.04603037 31.02301519 24.29880647 31.42930708 20 32 C17.10316132 34.2015974 15.60702769 35.78594462 14 39 C13.84373424 41.47832659 13.74186802 43.93311331 13.68359375 46.4140625 C13.66281265 47.14370209 13.64203156 47.87334167 13.62062073 48.62509155 C13.55518083 50.95829763 13.49626632 53.29161721 13.4375 55.625 C13.39430947 57.20574095 13.35069501 58.78647039 13.30664062 60.3671875 C13.19950519 64.24467504 13.09822218 68.12227685 13 72 C8.71 72 4.42 72 0 72 C0 48.24 0 24.48 0 0 Z " fill="#102F4B" transform="translate(519,0)"/>
<path d="M0 0 C3.96 0 7.92 0 12 0 C12 2.64 12 5.28 12 8 C12.82177734 7.13375 12.82177734 7.13375 13.66015625 6.25 C20.07610237 0.24091876 24.78401549 -0.85389089 33.484375 -0.671875 C39.67353182 0.51094164 43.92353365 4.34118132 48 9 C48.91127109 11.7475719 49.12264604 14.24385163 49.11352539 17.12597656 C49.11344986 17.92650452 49.11337433 18.72703247 49.11329651 19.55181885 C49.10813522 20.40612488 49.10297394 21.26043091 49.09765625 22.140625 C49.0962413 23.02280701 49.09482635 23.90498901 49.09336853 24.81390381 C49.08778001 27.62597065 49.07522961 30.4379573 49.0625 33.25 C49.05748352 35.15885302 49.05292087 37.06770728 49.04882812 38.9765625 C49.03781434 43.65107247 49.02055758 48.32552265 49 53 C45.04 53 41.08 53 37 53 C36.98541748 51.99622314 36.97083496 50.99244629 36.95581055 49.95825195 C36.89767948 46.2212425 36.82044835 42.48482631 36.73754883 38.74829102 C36.7043689 37.13348037 36.67631542 35.51855569 36.65356445 33.90356445 C36.61988975 31.57714408 36.56757037 29.25176217 36.51171875 26.92578125 C36.50532883 26.20787918 36.4989389 25.48997711 36.49235535 24.75032043 C36.36431489 20.34955267 35.67643877 17.5186402 33 14 C29.37902119 11.50456061 26.39977997 11.81430073 22.19140625 12.3828125 C18.80861884 13.3355405 17.11762752 15.28678974 15 18 C13.50377152 20.99245696 13.78171674 24.09326174 13.71875 27.37890625 C13.70034058 28.10617416 13.68193115 28.83344208 13.66296387 29.58274841 C13.58416867 32.70011489 13.51639957 35.81769883 13.44775391 38.93530273 C13.39614368 41.20828322 13.33885834 43.48107119 13.28125 45.75390625 C13.26767456 46.46430557 13.25409912 47.1747049 13.2401123 47.90663147 C13.11282987 52.88717013 13.11282987 52.88717013 12 54 C8.04 54 4.08 54 0 54 C0 36.18 0 18.36 0 0 Z " fill="#0F2E4A" transform="translate(397,19)"/>
<path d="M0 0 C4.56147614 4.82979827 6.38238599 9.47375125 6.75 16.125 C6.51832658 22.66150011 4.27445114 27.25931617 0.125 32.25 C-2.9375 34.75 -2.9375 34.75 -5.875 36.25 C-6.638125 36.6625 -7.40125 37.075 -8.1875 37.5 C-15.10816072 39.43134718 -21.52540236 38.4944216 -27.875 35.25 C-32.30161872 32.33245584 -35.81048303 28.57129293 -37.4609375 23.421875 C-38.64580571 17.20690589 -39.11072425 10.49951397 -35.875 4.875 C-26.22627895 -8.29234297 -13.09222277 -7.96917908 0 0 Z " fill="#7C99AB" transform="translate(339.875,108.75)"/>
<path d="M0 0 C0.66 0.33 1.32 0.66 2 1 C2.04626688 12.83036837 2.08184039 24.66071534 2.10362434 36.49115562 C2.11407763 41.98404503 2.12826493 47.4768727 2.15087891 52.96972656 C2.1725523 58.26705154 2.18455698 63.56431701 2.18975449 68.86168289 C2.19346016 70.88636843 2.20069604 72.91105059 2.21146011 74.93571091 C2.22590194 77.76369102 2.22798102 80.59142276 2.22705078 83.41943359 C2.23424133 84.26316025 2.24143188 85.1068869 2.24884033 85.97618103 C2.22810432 91.77189568 2.22810432 91.77189568 0 94 C-0.64767793 96.57061311 -0.64767793 96.57061311 -1 99 C-4.465 99.495 -4.465 99.495 -8 100 C-8 74.59 -8 49.18 -8 23 C-12.87389432 27.1776237 -16.46264413 30.52479276 -20.32421875 35.36328125 C-22.20532454 37.20053842 -23.4332473 37.61414829 -26 38 C-26 39.65 -26 41.3 -26 43 C-25.1646875 43.0928125 -25.1646875 43.0928125 -24.3125 43.1875 C-21.03510391 44.33901755 -19.3804232 46.5034586 -17 49 C-16.071875 49.61875 -15.14375 50.2375 -14.1875 50.875 C-12 53 -12 53 -11.5 56.1875 C-12.09512633 60.72533828 -13.37598025 64.73694816 -15 69 C-15.78246094 68.566875 -16.56492188 68.13375 -17.37109375 67.6875 C-18.38300781 67.130625 -19.39492187 66.57375 -20.4375 66 C-21.44683594 65.443125 -22.45617187 64.88625 -23.49609375 64.3125 C-25.67644131 62.92262248 -25.67644131 62.92262248 -27 63 C-27 52.44 -27 41.88 -27 31 C-27.66 30.67 -28.32 30.34 -29 30 C-28.55197021 29.52691406 -28.10394043 29.05382812 -27.64233398 28.56640625 C-25.57251045 26.37906087 -23.5049977 24.18954382 -21.4375 22 C-20.73302734 21.25621094 -20.02855469 20.51242188 -19.30273438 19.74609375 C-15.28714083 15.4899347 -11.36507931 11.18128876 -7.5703125 6.7265625 C-5.25711588 4.18319706 -2.70726032 2.11298366 0 0 Z " fill="#939390" transform="translate(183,48)"/>
<path d="M0 0 C2.52252572 0.93316965 4.9522032 1.91586196 7.36328125 3.10546875 C6.61328125 9.73046875 6.61328125 9.73046875 4.36328125 13.10546875 C3.14640625 12.61046875 1.92953125 12.11546875 0.67578125 11.60546875 C-5.37059325 9.54815602 -11.32407788 9.84203551 -17.63671875 10.10546875 C-18.29671875 12.08546875 -18.95671875 14.06546875 -19.63671875 16.10546875 C-19.05535156 16.24210937 -18.47398437 16.37875 -17.875 16.51953125 C-11.92181391 18.07795693 -6.26865341 20.66142164 -0.63671875 23.10546875 C0.25015625 23.37359375 1.13703125 23.64171875 2.05078125 23.91796875 C5.62004024 25.75083147 6.66356605 27.45422869 8.36328125 31.10546875 C9.14150653 37.49556297 9.36175431 42.80412245 5.36328125 48.10546875 C-0.98223084 53.24533354 -8.01548109 53.80367123 -15.9296875 53.5390625 C-22.49294737 52.77138932 -28.14865995 50.76417461 -33.63671875 47.10546875 C-32.93117807 43.4366572 -31.35936369 40.40096341 -29.63671875 37.10546875 C-28.86328125 37.53859375 -28.86328125 37.53859375 -28.07421875 37.98046875 C-25.0131515 39.39326902 -21.88726957 40.23032045 -18.63671875 41.10546875 C-18.63671875 41.76546875 -18.63671875 42.42546875 -18.63671875 43.10546875 C-16.51108772 42.99170258 -14.38619265 42.86411244 -12.26171875 42.73046875 C-11.07835937 42.66085938 -9.895 42.59125 -8.67578125 42.51953125 C-5.53109556 42.40329529 -5.53109556 42.40329529 -3.63671875 40.10546875 C-3.57124977 37.5949939 -3.57124977 37.5949939 -4.63671875 35.10546875 C-9.38520988 31.65122567 -14.6385414 30.708481 -20.26171875 29.36328125 C-25.2620198 27.49974313 -27.72871328 24.46747696 -30.63671875 20.10546875 C-31.43659652 14.86733112 -32.05070418 9.35012446 -29.140625 4.73046875 C-21.51320538 -2.88109344 -10.07466993 -2.47808745 0 0 Z " fill="#112E48" transform="translate(675.63671875,19.89453125)"/>
<path d="M0 0 C1.87676113 1.35692505 3.45365956 2.58982198 4.91796875 4.38671875 C4.91796875 5.37671875 4.91796875 6.36671875 4.91796875 7.38671875 C2.16796875 10.13671875 2.16796875 10.13671875 -1.08203125 12.38671875 C-3.86328073 12.38671875 -4.93726277 11.49639184 -7.14453125 9.82421875 C-11.70154378 7.59419134 -16.10385207 7.72880961 -21.08203125 8.38671875 C-25.51180796 10.52250395 -28.27816796 12.77684589 -30.08203125 17.38671875 C-31.0171247 24.07090525 -30.185621 29.90260035 -26.08203125 35.38671875 C-22.20424322 39.02162157 -18.95362583 38.87081277 -13.83984375 38.76171875 C-9.84896856 38.21905017 -7.45808934 36.52259224 -4.08203125 34.38671875 C-0.24225859 34.38671875 2.10350212 36.96315026 4.91796875 39.38671875 C4.56497646 42.19239882 4.14861429 43.1905322 1.95703125 45.0546875 C1.16039062 45.55613281 0.36375 46.05757812 -0.45703125 46.57421875 C-1.24851562 47.08339844 -2.04 47.59257813 -2.85546875 48.1171875 C-9.77041007 52.0599172 -19.04529225 51.20976632 -26.51953125 49.19921875 C-32.2098974 47.50695334 -35.99506634 44.02919894 -39.19921875 39.1875 C-44.00911154 29.64253497 -45.74341614 23.10614541 -42.51953125 12.69921875 C-39.72488036 5.6927713 -34.88297739 0.69528714 -28.08203125 -2.61328125 C-19.06127877 -5.57090501 -8.13346163 -4.66169143 0 0 Z " fill="#0D2C49" transform="translate(502.08203125,22.61328125)"/>
<path d="M0 0 C7.95572133 3.28644922 13.36858259 12.36161104 18.4296875 19.0234375 C20.44613956 21.56155875 22.67636806 23.74471018 25 26 C27.1359568 30.2719136 26.00253069 36.01353265 25.86791992 40.74853516 C25.81289759 42.85974446 25.78420947 44.97031887 25.75585938 47.08203125 C25.72038724 48.42712751 25.68332926 49.77218307 25.64453125 51.1171875 C25.61721924 52.34034668 25.58990723 53.56350586 25.56176758 54.82373047 C24.90181485 58.55514507 24.00310687 59.75521236 21 62 C17.75 62.75 17.75 62.75 15 63 C15 63.66 15 64.32 15 65 C13.0859375 64.37890625 13.0859375 64.37890625 11 63 C9.4544229 58.62086487 9.24296344 54.56832407 10 50 C13.14599502 45.63425259 17.11969871 41.90702955 22.33203125 40.265625 C22.88246094 40.17796875 23.43289062 40.0903125 24 40 C24 39.01 24 38.02 24 37 C23.1028125 36.9071875 23.1028125 36.9071875 22.1875 36.8125 C19.11633475 35.67178148 18.65962155 33.79618702 17 31 C15.5193711 29.21585537 13.99670708 27.4658984 12.4375 25.75 C11.25994141 24.44289063 11.25994141 24.44289063 10.05859375 23.109375 C8.17908195 20.95297352 8.17908195 20.95297352 6 20 C6 45.41 6 70.82 6 97 C3.69 96.67 1.38 96.34 -1 96 C-1.17713638 84.36923554 -1.34308021 72.73837022 -1.49477577 61.10724449 C-1.56556654 55.70632819 -1.64019733 50.30552209 -1.72363281 44.90478516 C-1.80402547 39.69183226 -1.87429335 34.47883181 -1.93757248 29.26564407 C-1.96347622 27.27771612 -1.99301483 25.28983206 -2.02626419 23.3020134 C-2.07224656 20.51566202 -2.10524914 17.72943404 -2.13525391 14.94287109 C-2.1517952 14.12287628 -2.16833649 13.30288147 -2.18537903 12.45803833 C-2.21915752 7.89334817 -1.74675334 4.30030018 0 0 Z " fill="#98978F" transform="translate(70,51)"/>
<path d="M0 0 C4.33271876 2.89489231 5.94541753 6.62489995 7.3125 11.5625 C7.77511047 16.59708369 7.69192758 21.57483538 7.5625 26.625 C7.54239291 27.98109325 7.52414961 29.33721547 7.5078125 30.69335938 C7.46097313 33.98382486 7.39538862 37.27277835 7.3125 40.5625 C4.3425 40.5625 1.3725 40.5625 -1.6875 40.5625 C-1.6875 38.9125 -1.6875 37.2625 -1.6875 35.5625 C-2.55375 36.5525 -3.42 37.5425 -4.3125 38.5625 C-8.91154688 42.53954464 -13.53497686 42.20245092 -19.3828125 42.1640625 C-24.09469563 41.30634382 -26.3095826 39.06102287 -29.47265625 35.62109375 C-31.7027081 31.8421956 -31.31237627 27.79929847 -30.6875 23.5625 C-28.5578078 19.91159909 -26.54715872 18.14986983 -22.6875 16.5625 C-20.39746094 16.33544922 -20.39746094 16.33544922 -17.921875 16.3671875 C-17.03242187 16.37363281 -16.14296875 16.38007812 -15.2265625 16.38671875 C-14.30617188 16.40347656 -13.38578125 16.42023438 -12.4375 16.4375 C-11.50164063 16.44652344 -10.56578125 16.45554687 -9.6015625 16.46484375 C-7.29661343 16.48836364 -4.9921884 16.52123147 -2.6875 16.5625 C-2.95143501 13.13019552 -2.95143501 13.13019552 -3.6875 9.5625 C-9.80392096 5.48488602 -18.67767361 7.504413 -25.6875 8.5625 C-27.1481285 5.91511084 -27.6875 4.66801666 -27.6875 1.5625 C-19.41779115 -2.48796964 -8.67967099 -3.55003429 0 0 Z " fill="#7B99AB" transform="translate(594.6875,105.4375)"/>
<path d="M0 0 C4.29 0 8.58 0 13 0 C13 4.95 13 9.9 13 15 C17.62 15 22.24 15 27 15 C27 18.3 27 21.6 27 25 C22.38 25 17.76 25 13 25 C13.09698952 28.93318035 13.19974849 32.86554184 13.31738281 36.7980957 C13.37444092 38.7929536 13.42164442 40.7880854 13.46875 42.78320312 C13.50742187 44.03681641 13.54609375 45.29042969 13.5859375 46.58203125 C13.63306885 48.31803589 13.63306885 48.31803589 13.68115234 50.08911133 C13.79471033 53.19127028 13.79471033 53.19127028 16 56 C18.66653905 56.36460453 18.66653905 56.36460453 21.625 56.1875 C22.62789062 56.16042969 23.63078125 56.13335937 24.6640625 56.10546875 C25.82035156 56.05326172 25.82035156 56.05326172 27 56 C28.60725635 59.21451269 28.05748185 62.43612536 28 66 C22.24800826 68.55644077 16.16533726 69.07188216 10 68 C6.38564935 65.95466978 2.84016764 63.38962254 1.41699219 59.34179688 C0.83574349 56.07754778 0.88918972 52.92418948 0.90234375 49.609375 C0.9037587 48.90476135 0.90517365 48.20014771 0.90663147 47.47418213 C0.91221067 45.23274416 0.92475927 42.99140757 0.9375 40.75 C0.94251769 39.22656395 0.94708013 37.70312632 0.95117188 36.1796875 C0.96217326 32.45309228 0.97942354 28.72655604 1 25 C-1.64 25 -4.28 25 -7 25 C-7 21.7 -7 18.4 -7 15 C-4.69 15 -2.38 15 0 15 C0 10.05 0 5.1 0 0 Z " fill="#112F4A" transform="translate(700,5)"/>
<path d="M0 0 C5.61 0 11.22 0 17 0 C17.42317708 3.05989583 17.84635417 6.11979167 18.26953125 9.1796875 C18.74665741 12.31238846 18.74665741 12.31238846 22 14 C24.41482413 14.50059916 24.41482413 14.50059916 27 14 C27.78375 13.34 28.5675 12.68 29.375 12 C32.74330256 9.43367424 34.86831278 9.6759461 39 10 C37.19098737 13.33239169 35.21203325 15.8504367 32.51391602 18.49438477 C29.44889887 21.54259646 26.51845753 24.72158568 23.5625 27.875 C22.91990234 28.55691406 22.27730469 29.23882812 21.61523438 29.94140625 C17.62149433 34.19869259 13.76673108 38.54046985 10 43 C5.78421936 42.17824265 4.40540915 40.5180228 1.75 37.125 C1.04359375 36.24070313 0.3371875 35.35640625 -0.390625 34.4453125 C-2 32 -2 32 -2 29 C-2.84691406 28.88398437 -2.84691406 28.88398437 -3.7109375 28.765625 C-6.78744213 27.73662345 -8.35100909 26.04680687 -10.625 23.75 C-11.40101562 22.98171875 -12.17703125 22.2134375 -12.9765625 21.421875 C-14.99990159 19.00011779 -16.01802749 16.97759406 -17 14 C-15.33388095 13.957279 -13.66617115 13.95936168 -12 14 C-11.67 14.33 -11.34 14.66 -11 15 C-5.40386001 14.84898631 -5.40386001 14.84898631 -1 12 C-0.53603307 9.10776497 -0.53603307 9.10776497 -0.375 5.875 C-0.189375 2.966875 -0.189375 2.966875 0 0 Z " fill="#B2B4B4" transform="translate(117,17)"/>
<path d="M0 0 C0.639375 0.5775 1.27875 1.155 1.9375 1.75 C1.6075 3.4 1.2775 5.05 0.9375 6.75 C0.2775 6.75 -0.3825 6.75 -1.0625 6.75 C-1.0625 7.41 -1.0625 8.07 -1.0625 8.75 C-4.73131155 8.04445932 -7.76700534 6.47264494 -11.0625 4.75 C-11.0625 4.09 -11.0625 3.43 -11.0625 2.75 C-21.01462111 2.22733204 -21.01462111 2.22733204 -30.0625 5.75 C-34.92449707 10.27399728 -37.11148075 14.88379376 -37.5 21.4375 C-37.37660678 27.3339332 -35.3268489 31.89782922 -32.0625 36.75 C-27.12448541 41.45833949 -23.68446446 42.13467051 -17.0234375 42.1171875 C-13.02573756 41.62143051 -10.34000439 40.06757305 -7.03515625 37.84375 C-5.0625 36.75 -5.0625 36.75 -1.0625 36.75 C0.6875 38.0625 0.6875 38.0625 1.9375 39.75 C1.9375 40.74 1.9375 41.73 1.9375 42.75 C0.14453125 44.28515625 0.14453125 44.28515625 -2.25 45.8125 C-3.02730469 46.31910156 -3.80460937 46.82570312 -4.60546875 47.34765625 C-11.85945316 51.48784767 -19.21794129 51.82150243 -27.40625 50.3203125 C-35.71574 47.649405 -41.20834618 41.39030034 -45.15234375 33.86328125 C-48.01895843 27.20732184 -48.20741494 19.11376153 -46.37890625 12.14453125 C-43.04447383 4.10592032 -37.94209718 -1.59161559 -30.0625 -5.25 C-19.16866366 -8.29014037 -9.00704907 -6.6174238 0 0 Z " fill="#7E9AAC" transform="translate(292.0625,96.25)"/>
<path d="M0 0 C3.96 0 7.92 0 12 0 C13.96822886 1.96822886 13.66248381 5.34808709 14 8 C14.38929688 7.50628906 14.77859375 7.01257813 15.1796875 6.50390625 C18.67807921 2.49768349 21.02982242 0.55480635 26.4375 0.0625 C27.943125 0.041875 29.44875 0.02125 31 0 C31 3.96 31 7.92 31 12 C29.618125 12.2475 28.23625 12.495 26.8125 12.75 C22.61962653 13.70442175 19.97931311 14.75780632 17 18 C13.08259483 24.75680203 13.44764482 31.78830299 13.3125 39.4375 C13.27833984 40.74138672 13.24417969 42.04527344 13.20898438 43.38867188 C13.12684385 46.59215226 13.06173702 49.79606146 13 53 C8.71 53 4.42 53 0 53 C0 35.51 0 18.02 0 0 Z " fill="#112E49" transform="translate(802,19)"/>
<path d="M0 0 C3.3 0 6.6 0 10 0 C10.01458252 0.8878418 10.02916504 1.77568359 10.04418945 2.69042969 C10.10534534 5.99327962 10.17951378 9.29530915 10.26245117 12.59765625 C10.29564794 14.02527914 10.32369631 15.45303163 10.34643555 16.88085938 C10.38008013 18.93675815 10.43239562 20.99147512 10.48828125 23.046875 C10.51446533 24.28276367 10.54064941 25.51865234 10.56762695 26.79199219 C11.02386899 30.17709687 11.61072657 31.60707715 14 34 C17.06238595 34.83154675 19.90501532 34.64071613 23 34 C26.28175318 31.47031526 27.69243777 29.92268669 29 26 C29.14986411 24.0093556 29.24828038 22.01464609 29.31640625 20.01953125 C29.35830078 18.85615234 29.40019531 17.69277344 29.44335938 16.49414062 C29.48267578 15.27919922 29.52199219 14.06425781 29.5625 12.8125 C29.60568359 11.58595703 29.64886719 10.35941406 29.69335938 9.09570312 C29.7995309 6.06391619 29.90157952 3.03204685 30 0 C32.97 0 35.94 0 39 0 C39 13.86 39 27.72 39 42 C36.03 42 33.06 42 30 42 C30 40.02 30 38.04 30 36 C29.52691406 36.42152344 29.05382812 36.84304687 28.56640625 37.27734375 C23.53508566 41.4455918 19.59337757 43.3180479 13 43 C9.20530983 42.28402072 7.53923124 41.53923124 4.8125 38.8125 C-0.4966664 30.57413835 -0.37307663 23.715986 -0.1875 14.0625 C-0.17242992 12.69728034 -0.15874561 11.33204465 -0.14648438 9.96679688 C-0.11126164 6.64411904 -0.06200041 3.32226819 0 0 Z " fill="#7696AD" transform="translate(453,104)"/>
<path d="M0 0 C2.97 0 5.94 0 9 0 C9 1.98 9 3.96 9 6 C9.928125 5.195625 10.85625 4.39125 11.8125 3.5625 C16.43971898 -0.44775645 21.04737897 -0.39790357 26.9765625 -0.34765625 C31.27585201 0.1467065 34.23878061 1.65181481 37 5 C39.12405724 9.23259625 39.23275976 12.78864997 39.1953125 17.48828125 C39.1924826 18.19147995 39.18965271 18.89467865 39.18673706 19.6191864 C39.17560151 21.85046892 39.15050997 24.08134017 39.125 26.3125 C39.1149616 27.83137438 39.10583726 29.3502551 39.09765625 30.86914062 C39.07568413 34.57955921 39.04120047 38.28973942 39 42 C36.03 42 33.06 42 30 42 C29.98541748 41.20827393 29.97083496 40.41654785 29.95581055 39.60083008 C29.88121644 36.00423457 29.78459167 32.40855557 29.6875 28.8125 C29.66494141 27.56662109 29.64238281 26.32074219 29.61914062 25.03710938 C29.58369141 23.83505859 29.54824219 22.63300781 29.51171875 21.39453125 C29.48553467 20.28956299 29.45935059 19.18459473 29.43237305 18.04614258 C28.949377 14.64335223 28.0814115 12.71924856 26 10 C22.30067639 8.76689213 18.83887161 8.28795123 15 9 C10.77470845 13.11695074 9.87858193 16.14458901 9.68359375 21.8828125 C9.64169922 23.04941406 9.59980469 24.21601563 9.55664062 25.41796875 C9.49766602 27.25294922 9.49766602 27.25294922 9.4375 29.125 C9.39431641 30.35605469 9.35113281 31.58710938 9.30664062 32.85546875 C9.20031296 35.90352853 9.09828219 38.9516719 9 42 C6.03 42 3.06 42 0 42 C0 28.14 0 14.28 0 0 Z " fill="#7B98AF" transform="translate(358,104)"/>
<path d="M0 0 C4.33922181 4.64916623 4.12205962 9.24097621 4.09765625 15.390625 C4.0962413 16.09523865 4.09482635 16.79985229 4.09336853 17.52581787 C4.08778933 19.76725584 4.07524073 22.00859243 4.0625 24.25 C4.05748231 25.77343605 4.05291987 27.29687368 4.04882812 28.8203125 C4.03782674 32.54690772 4.02057646 36.27344396 4 40 C1.36 40 -1.28 40 -4 40 C-4.02505615 39.16750732 -4.0501123 38.33501465 -4.07592773 37.47729492 C-4.17112694 34.38537167 -4.27035672 31.29361148 -4.37231445 28.2019043 C-4.43687006 26.20696681 -4.4967783 24.21188071 -4.55664062 22.21679688 C-4.59853516 20.96318359 -4.64042969 19.70957031 -4.68359375 18.41796875 C-4.72025146 17.26063232 -4.75690918 16.1032959 -4.79467773 14.91088867 C-4.88328509 11.9356554 -4.88328509 11.9356554 -6 9 C-10.2885063 6.53086001 -14.19277595 6.54216914 -19 7 C-22.45058637 9.45173242 -23.6593194 12.06329998 -25 16 C-25.36051198 18.79774989 -25.36051198 18.79774989 -25.4140625 21.73828125 C-25.47207031 23.33833008 -25.47207031 23.33833008 -25.53125 24.97070312 C-25.57765625 26.62489258 -25.57765625 26.62489258 -25.625 28.3125 C-25.68300781 29.99569336 -25.68300781 29.99569336 -25.7421875 31.71289062 C-25.83622011 34.47509852 -25.92187341 37.237304 -26 40 C-28.64 40 -31.28 40 -34 40 C-34 26.47 -34 12.94 -34 -1 C-31.36 -1 -28.72 -1 -26 -1 C-26 0.65 -26 2.3 -26 4 C-24.700625 2.7934375 -24.700625 2.7934375 -23.375 1.5625 C-17.56170606 -3.23448381 -6.57275982 -3.86632931 0 0 Z " fill="#7A98B0" transform="translate(651,106)"/>
<path d="M0 0 C2.64 0 5.28 0 8 0 C8.23074219 0.52207031 8.46148438 1.04414062 8.69921875 1.58203125 C10.6229265 5.92367996 12.57477913 10.24974805 14.5625 14.5625 C20 26.54513889 20 26.54513889 20 32 C20.99 32 21.98 32 23 32 C23.103125 31.360625 23.20625 30.72125 23.3125 30.0625 C23.86929088 27.5822497 24.53081437 25.30603597 25.34375 22.90625 C25.6116333 22.11162354 25.8795166 21.31699707 26.15551758 20.49829102 C26.43419678 19.67385498 26.71287598 18.84941895 27 18 C27.53593408 16.39479074 28.0710972 14.78932385 28.60546875 13.18359375 C30.0703125 8.7890625 31.53515625 4.39453125 33 0 C35.97 0 38.94 0 42 0 C40.93092912 5.61262211 39.54119841 10.49997745 37.09765625 15.6640625 C34.3555891 21.49949366 32.09239991 27.40806484 30 33.5 C28.1907509 38.76755336 26.25273791 43.90452139 24 49 C20.7 49 17.4 49 14 49 C14.33 48.01 14.66 47.02 15 46 C15.40676816 40.5186324 14.32712412 36.35228164 12.1875 31.375 C11.92646484 30.73304688 11.66542969 30.09109375 11.39648438 29.4296875 C10.24483789 26.65436166 9.02028843 24.03355593 7.46484375 21.4609375 C5.70130895 18.49819903 4.56719701 15.48282871 3.375 12.25 C2.17671464 8.33973431 2.17671464 8.33973431 0 5 C-0.04063832 3.33382885 -0.042721 1.66611905 0 0 Z " fill="#7D9AAD" transform="translate(713,104)"/>
<path d="M0 0 C0.68964844 -0.00386719 1.37929688 -0.00773437 2.08984375 -0.01171875 C7.24666707 -0.00166646 7.24666707 -0.00166646 9.5 1.125 C9.5 1.785 9.5 2.445 9.5 3.125 C10.304375 3.3725 11.10875 3.62 11.9375 3.875 C14.5 5.125 14.5 5.125 15.5 7 C15.5 9.86970549 14.37086204 11.02963451 12.5 13.125 C9.53824877 12.51222388 8.11941217 11.87127478 5.5 10.125 C-0.18277357 9.35596369 -4.95552774 9.00450052 -9.6875 12.4375 C-12.85925615 17.14044877 -13.18792541 21.60274943 -12.5 27.125 C-10.89285226 30.28189734 -9.52561766 32.31915756 -6.75 34.5 C-2.63275169 35.64368009 1.45197085 36.11876942 5.3515625 34.2265625 C7.18562522 33.03495269 7.18562522 33.03495269 9.5 31.125 C11.96800047 32.27673355 13.54783565 33.17283565 15.5 35.125 C15.40625 37.078125 15.40625 37.078125 14.5 39.125 C8.72548999 43.47879723 2.59906899 45.11649008 -4.5 44.125 C-10.38009543 42.94898091 -14.33815733 41.1479156 -17.8828125 36.19140625 C-21.96468659 29.83534517 -23.422229 24.70658026 -22.5 17.125 C-20.15580967 9.64330843 -16.16219149 5.11054943 -9.5 1.125 C-6.46570323 -0.39214839 -3.32398333 -0.01863916 0 0 Z " fill="#7D98A8" transform="translate(689.5,102.875)"/>
<path d="M0 0 C0.99386719 0.00902344 1.98773438 0.01804687 3.01171875 0.02734375 C4.15060547 0.04474609 4.15060547 0.04474609 5.3125 0.0625 C5.3125 0.7225 5.3125 1.3825 5.3125 2.0625 C7.9525 2.3925 10.5925 2.7225 13.3125 3.0625 C12.9825 5.3725 12.6525 7.6825 12.3125 10.0625 C11.47460938 9.89878906 10.63671875 9.73507813 9.7734375 9.56640625 C6.10732693 9.03262717 2.64010615 8.96506975 -1.0625 9 C-2.30773437 9.00902344 -3.55296875 9.01804687 -4.8359375 9.02734375 C-5.77695312 9.03894531 -6.71796875 9.05054687 -7.6875 9.0625 C-7.24710211 12.52365156 -7.24710211 12.52365156 -5.6875 16.0625 C-3.07512966 17.33004064 -1.13637231 18.04519796 1.625 18.6875 C7.07566698 20.04091489 10.74625173 21.49960059 14.3125 26.0625 C15.56134725 30.52266874 14.66121583 34.3092738 12.75 38.4375 C9.35118709 42.09776005 6.14557139 43.74148652 1.140625 44.30859375 C-5.57213183 44.50534697 -12.55079235 43.77114868 -17.6875 39.0625 C-17.1925 36.0925 -17.1925 36.0925 -16.6875 33.0625 C-14.3775 33.3925 -12.0675 33.7225 -9.6875 34.0625 C-9.6875 34.7225 -9.6875 35.3825 -9.6875 36.0625 C-7.56256859 36.08943575 -5.43754088 36.10886628 -3.3125 36.125 C-2.12914062 36.13660156 -0.94578125 36.14820313 0.2734375 36.16015625 C3.23171521 36.27716593 3.23171521 36.27716593 5.3125 35.0625 C5.97022428 32.03315509 5.97022428 32.03315509 6.3125 29.0625 C5.67183594 28.88074219 5.03117187 28.69898438 4.37109375 28.51171875 C-10.35058563 24.23343637 -10.35058563 24.23343637 -14.6875 19.0625 C-16.57252106 15.29245789 -16.46913037 11.14573706 -15.6875 7.0625 C-11.5570479 1.51462734 -6.73492587 -0.07923442 0 0 Z " fill="#7E9AAA" transform="translate(426.6875,102.9375)"/>
<path d="M0 0 C6.93359375 -0.09765625 6.93359375 -0.09765625 9 0 C10 1 10 1 10.09765625 3.50390625 C10.06510417 6.3359375 10.03255208 9.16796875 10 12 C13.63 12 17.26 12 21 12 C21.04241723 14.33294775 21.04092937 16.66702567 21 19 C20 20 20 20 17.49609375 20.09765625 C16.48675781 20.08605469 15.47742188 20.07445313 14.4375 20.0625 C13.42558594 20.05347656 12.41367187 20.04445313 11.37109375 20.03515625 C10.19740234 20.01775391 10.19740234 20.01775391 9 20 C9.1097568 23.77143982 9.24041479 27.54187097 9.375 31.3125 C9.4059375 32.38435547 9.436875 33.45621094 9.46875 34.56054688 C9.50742187 35.58857422 9.54609375 36.61660156 9.5859375 37.67578125 C9.6173584 38.62364502 9.6487793 39.57150879 9.68115234 40.5480957 C9.8489051 43.2530269 9.8489051 43.2530269 12 46 C14.20725073 46.36362818 14.20725073 46.36362818 16.625 46.1875 C17.85089844 46.14689453 17.85089844 46.14689453 19.1015625 46.10546875 C20.04128906 46.05326172 20.04128906 46.05326172 21 46 C21 48.31 21 50.62 21 53 C16.3304061 55.56074504 12.01888134 55.37600262 7 54 C4.05249221 52.35772955 1.5352144 50.48324531 0.34985352 47.19824219 C-0.08226792 44.48308422 -0.11168643 41.89054012 -0.09765625 39.140625 C-0.09282227 37.46806641 -0.09282227 37.46806641 -0.08789062 35.76171875 C-0.07951172 34.60285156 -0.07113281 33.44398437 -0.0625 32.25 C-0.05798828 31.07566406 -0.05347656 29.90132812 -0.04882812 28.69140625 C-0.03705094 25.79421928 -0.02060326 22.89713546 0 20 C-1.98 20 -3.96 20 -6 20 C-6 17.36 -6 14.72 -6 12 C-4.02 12 -2.04 12 0 12 C0 8.04 0 4.08 0 0 Z " fill="#7C99AC" transform="translate(534,92)"/>
<path d="M0 0 C3.54238448 1.67797159 5.30277202 2.89077367 7.375 6.1875 C8.43002952 10.93513285 9.16787088 15.53863069 7.01953125 20.06640625 C4.747521 23.41499981 2.82923516 25.501908 -1 27 C-4.39847993 27.52496844 -7.60250035 27.54514176 -11 27 C-14.41851689 24.43611234 -16.35765745 21.89877841 -18 18 C-18.7164344 12.95163669 -18.54701546 9.05630571 -16.1875 4.5 C-11.43243405 -0.93436109 -6.81884227 -0.78903746 0 0 Z " fill="#D1AE39" transform="translate(329,112)"/>
<path d="M0 0 C0.66 0.33 1.32 0.66 2 1 C2.06950398 12.77853486 2.1228134 24.55702095 2.15543652 36.33571911 C2.17109381 41.80502248 2.19233345 47.27418557 2.22631836 52.7434082 C2.25890923 58.02130322 2.27685254 63.29906328 2.28463173 68.57705116 C2.2901757 70.59089597 2.30100167 72.60473337 2.31719017 74.61852074 C2.33896065 77.43879547 2.34196706 80.2585122 2.34057617 83.07885742 C2.35675491 84.32826866 2.35675491 84.32826866 2.3732605 85.60292053 C2.34892209 90.16231599 2.10671034 93.37827853 -1 97 C-1.99 97 -2.98 97 -4 97 C-4.09257494 84.79579945 -4.16370148 72.59168207 -4.20724869 60.38720226 C-4.22814647 54.72049265 -4.25650433 49.05402278 -4.30175781 43.38745117 C-4.34513705 37.92152352 -4.36912059 32.45582684 -4.37950897 26.98974037 C-4.38691458 24.90165888 -4.40137554 22.81359039 -4.42292023 20.72560692 C-4.4518487 17.80661824 -4.45596041 14.88859078 -4.45410156 11.96948242 C-4.46848267 11.10129883 -4.48286377 10.23311523 -4.49768066 9.33862305 C-4.45705348 3.46431163 -4.45705348 3.46431163 -1.97161865 0.93940735 C-1.3209845 0.62940292 -0.67035034 0.3193985 0 0 Z " fill="#C7C8C8" transform="translate(183,48)"/>
<path d="M0 0 C2.97 0 5.94 0 9 0 C9 19.47 9 38.94 9 59 C6.03 59 3.06 59 0 59 C0 39.53 0 20.06 0 0 Z " fill="#7A99B2" transform="translate(508,87)"/>
<path d="M0 0 C13.53 0 27.06 0 41 0 C38.99704107 5.00739733 36.93265849 8.53367075 32 11 C28.06930842 11.32248898 24.12978381 11.32442843 20.1875 11.375 C18.5468457 11.43107422 18.5468457 11.43107422 16.87304688 11.48828125 C8.75058861 11.57737586 8.75058861 11.57737586 4.8515625 8.578125 C4.24054688 7.72734375 3.62953125 6.8765625 3 6 C2.401875 5.46375 1.80375 4.9275 1.1875 4.375 C0 3 0 3 0 0 Z " fill="#CDAA37" transform="translate(105,126)"/>
<path d="M0 0 C3.06139807 0.91014537 4.68274705 1.58771628 6.65454102 4.15014648 C9.03734589 9.19723074 8.24321841 14.50017983 8.01879883 19.97485352 C7.93761624 22.05951506 7.89404764 24.1427134 7.85351562 26.22851562 C7.80775391 27.54658203 7.76199219 28.86464844 7.71484375 30.22265625 C7.67480225 31.42672119 7.63476074 32.63078613 7.59350586 33.87133789 C6.89514679 37.55273299 5.96447788 38.77052217 3 41 C-0.25 41.75 -0.25 41.75 -3 42 C-3 42.66 -3 43.32 -3 44 C-4.9140625 43.37890625 -4.9140625 43.37890625 -7 42 C-8.5455771 37.62086487 -8.75703656 33.56832407 -8 29 C-4.85400498 24.63425259 -0.88030129 20.90702955 4.33203125 19.265625 C4.88246094 19.17796875 5.43289062 19.0903125 6 19 C6 18.01 6 17.02 6 16 C5.401875 15.938125 4.80375 15.87625 4.1875 15.8125 C1.09509062 14.6638908 0.52876662 12.85812891 -1 10 C-1.98244845 8.65368175 -2.97676564 7.31558703 -4 6 C-3.34 6 -2.68 6 -2 6 C-1.855625 5.38125 -1.71125 4.7625 -1.5625 4.125 C-1 2 -1 2 0 0 Z " fill="#ADB3B7" transform="translate(88,72)"/>
<path d="M0 0 C0 0.99 0 1.98 0 3 C0.226729 4.45871431 0.45611365 5.91701721 0.6875 7.375 C1.0563202 10.61008007 1.04445502 11.88769258 -0.1875 15 C-2.14428257 17.15920836 -3.13994749 17.7041325 -6 18 C-6 19.65 -6 21.3 -6 23 C-5.1646875 23.0928125 -5.1646875 23.0928125 -4.3125 23.1875 C-1.03510391 24.33901755 0.6195768 26.5034586 3 29 C3.928125 29.61875 4.85625 30.2375 5.8125 30.875 C8 33 8 33 8.5 36.1875 C7.90487367 40.72533828 6.62401975 44.73694816 5 49 C4.21753906 48.566875 3.43507812 48.13375 2.62890625 47.6875 C1.61699219 47.130625 0.60507813 46.57375 -0.4375 46 C-1.44683594 45.443125 -2.45617187 44.88625 -3.49609375 44.3125 C-5.67644131 42.92262248 -5.67644131 42.92262248 -7 43 C-7 32.44 -7 21.88 -7 11 C-7.66 10.67 -8.32 10.34 -9 10 C-6.03 6.7 -3.06 3.4 0 0 Z " fill="#A3A9A7" transform="translate(163,68)"/>
<path d="M0 0 C2.33610148 2.33610148 2.27768438 2.82617666 2.4140625 5.99609375 C2.45289551 6.8459082 2.49172852 7.69572266 2.53173828 8.57128906 C2.56251465 9.51713867 2.59329102 10.46298828 2.625 11.4375 C2.66222168 12.44393555 2.69944336 13.45037109 2.73779297 14.48730469 C3.60628157 41.32640413 2.92668341 68.17300834 2 95 C1.01 94.67 0.02 94.34 -1 94 C-1.17714855 82.63000683 -1.34309147 71.25991041 -1.49477577 59.88954735 C-1.56556185 54.60969705 -1.6401901 49.32995962 -1.72363281 44.05029297 C-1.80403464 38.9540517 -1.8742997 33.85776177 -1.93757248 28.76128006 C-1.96347311 26.81800828 -1.99301081 24.87478142 -2.02626419 22.93162155 C-2.07225705 20.2075369 -2.10525354 17.48357863 -2.13525391 14.75927734 C-2.1517952 13.95798401 -2.16833649 13.15669067 -2.18537903 12.33111572 C-2.21957309 7.81184647 -1.7220272 4.2593554 0 0 Z " fill="#BCBAB1" transform="translate(70,51)"/>
<path d="M0 0 C3.02950287 1.48308416 5.21219175 3.12713832 7 6 C7.33 8.31 7.66 10.62 8 13 C-0.91 13 -9.82 13 -19 13 C-19 7.11051518 -17.93389799 6.11686999 -14 2 C-9.5111939 -0.9925374 -5.25535873 -0.82709685 0 0 Z " fill="#CFAC37" transform="translate(613,29)"/>
<path d="M0 0 C3.30056072 1.65028036 5.24915523 2.94199146 7.375 5.9375 C8 8 8 8 8 13 C-0.58 13 -9.16 13 -18 13 C-18 7 -18 7 -16.6015625 4.8828125 C-11.28519495 0.15481764 -7.09370878 -1.50652344 0 0 Z " fill="#CAA837" transform="translate(768,29)"/>
<path d="M0 0 C0.84046875 0.01804688 1.6809375 0.03609375 2.546875 0.0546875 C4.61507395 0.10169202 6.68268441 0.17343276 8.75 0.25 C9.0546875 7.8828125 9.0546875 7.8828125 6.3125 11.1875 C5.466875 11.868125 4.62125 12.54875 3.75 13.25 C3.42 13.58 3.09 13.91 2.75 14.25 C0.62880076 14.40193163 -1.49855315 14.47183514 -3.625 14.5 C-4.78773438 14.52578125 -5.95046875 14.5515625 -7.1484375 14.578125 C-10.25 14.25 -10.25 14.25 -12.13671875 12.94921875 C-14.04290058 10.03978332 -13.66247138 7.60869554 -13.25 4.25 C-9.85951758 -0.91340315 -5.58448278 -0.22686961 0 0 Z " fill="#CAA837" transform="translate(359.25,48.75)"/>
<path d="M0 0 C1.65 1.65 3.3 3.3 5 5 C4.67468292 5.80555328 4.34936584 6.61110657 4.01419067 7.44107056 C2.79088464 11.73381351 2.73405839 15.50784582 2.77294922 19.94287109 C2.77251114 21.26091736 2.77251114 21.26091736 2.77206421 22.60559082 C2.77345177 25.49497531 2.78898596 28.38409834 2.8046875 31.2734375 C2.80841967 33.28268289 2.81126568 35.29193011 2.81326294 37.30117798 C2.82088334 42.57835961 2.84051817 47.85543039 2.8626709 53.13256836 C2.88316364 58.52195741 2.89227199 63.91136444 2.90234375 69.30078125 C2.92376555 79.86723608 2.95788228 90.43360881 3 101 C5.31 101.33 7.62 101.66 10 102 C10 102.33 10 102.66 10 103 C6.66666667 103 3.33333333 103 0 103 C0 69.01 0 35.02 0 0 Z " fill="#BAA558" transform="translate(66,46)"/>
<path d="M0 0 C7.27308315 0.10470662 7.27308315 0.10470662 10.0625 2.6875 C11.6875 5.4375 11.6875 5.4375 11.5078125 7.3828125 C10.49620043 9.91665988 9.17874604 11.20998831 7.1875 13.0625 C4.56943354 15.47360916 4.56943354 15.47360916 2.6875 18.4375 C-1.47063865 17.94941149 -3.06358785 15.85297461 -5.625 12.6875 C-6.34300781 11.82640625 -7.06101562 10.9653125 -7.80078125 10.078125 C-9.3125 7.4375 -9.3125 7.4375 -9.16796875 4.734375 C-7.35269096 -0.13952153 -4.78253659 0.09207602 0 0 Z " fill="#CFAC39" transform="translate(124.3125,41.5625)"/>
<path d="M0 0 C0.66 0 1.32 0 2 0 C4.07418879 4.26680012 4.2328762 7.77403712 4.1953125 12.48828125 C4.1924826 13.19147995 4.18965271 13.89467865 4.18673706 14.6191864 C4.17560151 16.85046892 4.15050997 19.08134017 4.125 21.3125 C4.1149616 22.83137438 4.10583726 24.3502551 4.09765625 25.86914062 C4.07568413 29.57955921 4.04120047 33.28973942 4 37 C1.03 37 -1.94 37 -5 37 C-5 28.42 -5 19.84 -5 11 C-4.67 11 -4.34 11 -4 11 C-4 17.93 -4 24.86 -4 32 C-3.34 32 -2.68 32 -2 32 C-2.01047363 31.10168457 -2.02094727 30.20336914 -2.03173828 29.27783203 C-2.0657947 25.94935553 -2.09088618 22.62106378 -2.10986328 19.29248047 C-2.11992963 17.85104453 -2.1335838 16.40962905 -2.15087891 14.96826172 C-2.17510012 12.89806066 -2.18647641 10.82812924 -2.1953125 8.7578125 C-2.20578613 7.5114502 -2.21625977 6.26508789 -2.22705078 4.98095703 C-2 2 -2 2 0 0 Z " fill="#7B96A6" transform="translate(393,109)"/>
<path d="M0 0 C0.69738281 0.01353516 1.39476562 0.02707031 2.11328125 0.04101562 C3.82585541 0.0762055 5.53802941 0.13000845 7.25 0.1875 C7.60465783 3.26120117 7.74043943 6.12357196 7.25 9.1875 C4.00527374 12.59862248 1.19318752 13.4286812 -3.375 13.625 C-6.08111799 13.47897002 -7.78488351 13.17303611 -10.3125 12.125 C-12.56151056 9.09372489 -12.27134619 6.83692331 -11.75 3.1875 C-8.4099141 -0.49840287 -4.64302471 -0.17115119 0 0 Z " fill="#D2AE38" transform="translate(584.75,126.8125)"/>
<path d="M0 0 C2.64 0 5.28 0 8 0 C8.24234375 0.556875 8.4846875 1.11375 8.734375 1.6875 C10.47859743 5.6589603 12.26747719 9.57866096 14.25 13.4375 C16 17 16 17 16 19 C15.34 19 14.68 19 14 19 C13.34 21.97 12.68 24.94 12 28 C8.14344227 23.04156863 5.55081446 18.15006128 3.375 12.25 C2.17671464 8.33973431 2.17671464 8.33973431 0 5 C-0.04063832 3.33382885 -0.042721 1.66611905 0 0 Z " fill="#7E9CB4" transform="translate(713,104)"/>
<path d="M0 0 C0 30.69 0 61.38 0 93 C0.99 93 1.98 93 3 93 C3 93.66 3 94.32 3 95 C1.35 95 -0.3 95 -2 95 C-2 64.97 -2 34.94 -2 4 C-2.66 3.67 -3.32 3.34 -4 3 C-1.125 0 -1.125 0 0 0 Z " fill="#A1A19E" transform="translate(179,52)"/>
<path d="M0 0 C2.97 0 5.94 0 9 0 C9 19.47 9 38.94 9 59 C8.67 59 8.34 59 8 59 C7.67 42.17 7.34 25.34 7 8 C6.67 11.3 6.34 14.6 6 18 C5.34 18.66 4.68 19.32 4 20 C3.90912109 18.71802734 3.90912109 18.71802734 3.81640625 17.41015625 C3.73261719 16.30542969 3.64882813 15.20070313 3.5625 14.0625 C3.48128906 12.96035156 3.40007812 11.85820313 3.31640625 10.72265625 C3.29581916 8.08890097 3.29581916 8.08890097 2 7 C1.67 24.16 1.34 41.32 1 59 C0.67 59 0.34 59 0 59 C0 39.53 0 20.06 0 0 Z " fill="#8E9574" transform="translate(508,87)"/>
<path d="M0 0 C5.59753384 4.54799625 10.3143947 9.52331848 15 15 C14.690625 15.763125 14.38125 16.52625 14.0625 17.3125 C13.32106407 19.18789677 12.63771783 21.08684652 12 23 C8.78109121 22.76156231 7.79374911 21.79877962 5.4375 19.5 C0.94559485 13.7187517 -0.45857221 7.18429789 0 0 Z " fill="#848680" transform="translate(74,55)"/>
<path d="M0 0 C2.97 0 5.94 0 9 0 C9 13.86 9 27.72 9 42 C6.03 42 3.06 42 0 42 C0 40.02 0 38.04 0 36 C0.33 36 0.66 36 1 36 C1 37.65 1 39.3 1 41 C3.31 41 5.62 41 8 41 C8 28.13 8 15.26 8 2 C7.34 2 6.68 2 6 2 C6.01571045 2.68102783 6.0314209 3.36205566 6.04760742 4.0637207 C6.10993222 7.14656281 6.14898258 10.22927244 6.1875 13.3125 C6.21263672 14.38435547 6.23777344 15.45621094 6.26367188 16.56054688 C6.27333984 17.58857422 6.28300781 18.61660156 6.29296875 19.67578125 C6.3086792 20.62364502 6.32438965 21.57150879 6.34057617 22.5480957 C6 25 6 25 3 28 C3 19.75 3 11.5 3 3 C2.34 3 1.68 3 1 3 C1 5.31 1 7.62 1 10 C0.67 10 0.34 10 0 10 C0 6.7 0 3.4 0 0 Z " fill="#82917F" transform="translate(483,104)"/>
<path d="M0 0 C2.97 0 5.94 0 9 0 C5.77208445 2.1519437 4.71599191 2.20086443 1 2 C1.11386459 4.77170395 1.24060778 7.54178046 1.375 10.3125 C1.4059375 11.09818359 1.436875 11.88386719 1.46875 12.69335938 C1.50742187 13.45068359 1.54609375 14.20800781 1.5859375 14.98828125 C1.6173584 15.68477783 1.6487793 16.38127441 1.68115234 17.09887695 C2.09433047 19.56244364 3.231822 21.231822 5 23 C5.15582303 24.34015221 5.25044142 25.68758903 5.31640625 27.03515625 C5.35830078 27.84404297 5.40019531 28.65292969 5.44335938 29.48632812 C5.48267578 30.33646484 5.52199219 31.18660156 5.5625 32.0625 C5.60568359 32.91650391 5.64886719 33.77050781 5.69335938 34.65039062 C5.79976702 36.76672037 5.90041731 38.88333813 6 41 C6.99 41.33 7.98 41.66 9 42 C6.03 42 3.06 42 0 42 C0 28.14 0 14.28 0 0 Z " fill="#80938E" transform="translate(358,104)"/>
<path d="M0 0 C2.64 0 5.28 0 8 0 C6.03617993 1.50559539 4.21736634 2.89131683 2 4 C2 8.95 2 13.9 2 19 C2.33 18.01 2.66 17.02 3 16 C3.66 16 4.32 16 5 16 C5.33 24.25 5.66 32.5 6 41 C4.02 41 2.04 41 0 41 C0 27.47 0 13.94 0 0 Z " fill="#7D8E80" transform="translate(617,105)"/>
<path d="M0 0 C3.12933756 3.12933756 2.48269866 7.03148985 2.625 11.25 C2.66294678 12.19697754 2.70089355 13.14395508 2.73999023 14.11962891 C3.20743762 27.40531025 3.08771048 40.7084884 3 54 C-2.78359876 48.21640124 -0.3599904 31.62205397 -0.55761719 23.61743164 C-0.62563975 20.91205596 -0.7031877 18.20705568 -0.78125 15.50195312 C-0.82609276 13.78126481 -0.87038414 12.06056202 -0.9140625 10.33984375 C-0.93796051 9.53159653 -0.96185852 8.7233493 -0.98648071 7.89060974 C-1.11464038 2.22928076 -1.11464038 2.22928076 0 0 Z " fill="#C1C2BF" transform="translate(69,55)"/>
<path d="M0 0 C3.3 0 6.6 0 10 0 C10 9.24 10 18.48 10 28 C9.67 28 9.34 28 9 28 C9 19.09 9 10.18 9 1 C8.01 1 7.02 1 6 1 C6 9.58 6 18.16 6 27 C5.34 27 4.68 27 4 27 C3.67 18.75 3.34 10.5 3 2 C2.34 2 1.68 2 1 2 C1 10.91 1 19.82 1 29 C0.67 29 0.34 29 0 29 C0 19.43 0 9.86 0 0 Z " fill="#9F9B62" transform="translate(453,104)"/>
<path d="M0 0 C1.65 1.65 3.3 3.3 5 5 C4.34 6.98 3.68 8.96 3 11 C2.67 11 2.34 11 2 11 C1.67 41.36 1.34 71.72 1 103 C0.67 103 0.34 103 0 103 C0 69.01 0 35.02 0 0 Z " fill="#AF9947" transform="translate(66,46)"/>
<path d="M0 0 C0.66 0 1.32 0 2 0 C2 25.41 2 50.82 2 77 C5.465 76.505 5.465 76.505 9 76 C8.938125 75.21625 8.87625 74.4325 8.8125 73.625 C8.874375 72.75875 8.93625 71.8925 9 71 C10.485 70.01 10.485 70.01 12 69 C12 71.97 12 74.94 12 78 C8.37 78 4.74 78 1 78 C0.67 53.25 0.34 28.5 0 3 C-0.66 2.67 -1.32 2.34 -2 2 C-1.34 1.34 -0.68 0.68 0 0 Z " fill="#B6A057" transform="translate(173,71)"/>
<path d="M0 0 C3.06821229 0.91217122 4.69126498 1.60550525 6.6875 4.15625 C8.32690047 7.70828435 8.11675065 9.94924416 7.6875 13.8125 C7.56761719 14.97394531 7.44773437 16.13539062 7.32421875 17.33203125 C7.21722656 18.21246094 7.11023438 19.09289062 7 20 C6.01 19.67 5.02 19.34 4 19 C4.66 19 5.32 19 6 19 C6 18.01 6 17.02 6 16 C5.401875 15.938125 4.80375 15.87625 4.1875 15.8125 C1.09509062 14.6638908 0.52876662 12.85812891 -1 10 C-1.98244845 8.65368175 -2.97676564 7.31558703 -4 6 C-3.34 6 -2.68 6 -2 6 C-1.7834375 5.071875 -1.7834375 5.071875 -1.5625 4.125 C-1 2 -1 2 0 0 Z " fill="#A0A09A" transform="translate(88,72)"/>
<path d="M0 0 C0.33 0 0.66 0 1 0 C1 13.2 1 26.4 1 40 C1.66 40.33 2.32 40.66 3 41 C0.69 41 -1.62 41 -4 41 C-3.67 40.01 -3.34 39.02 -3 38 C-2.67 38 -2.34 38 -2 38 C-1.97494385 36.91992676 -1.9498877 35.83985352 -1.92407227 34.72705078 C-1.83004428 30.72757688 -1.72981246 26.72827853 -1.62768555 22.72900391 C-1.5843192 20.99662374 -1.54264537 19.26420037 -1.50268555 17.53173828 C-1.44502406 15.04446373 -1.38131802 12.55740707 -1.31640625 10.0703125 C-1.29969376 9.29317902 -1.28298126 8.51604553 -1.26576233 7.71536255 C-1.11387171 2.22774341 -1.11387171 2.22774341 0 0 Z " fill="#7995A6" transform="translate(513,105)"/>
<path d="M0 0 C0.33 0 0.66 0 1 0 C1 10.56 1 21.12 1 32 C-1.97 32 -4.94 32 -8 32 C-8 23.42 -8 14.84 -8 6 C-7.67 6 -7.34 6 -7 6 C-7 14.25 -7 22.5 -7 31 C-6.34 31 -5.68 31 -5 31 C-4.67 29.02 -4.34 27.04 -4 25 C-3.01 25.33 -2.02 25.66 -1 26 C-0.67 17.42 -0.34 8.84 0 0 Z " fill="#849386" transform="translate(396,114)"/>
<path d="M0 0 C1.56073255 2.34109882 2.86373867 4.56333403 4.125 7.0625 C4.47820313 7.75472656 4.83140625 8.44695312 5.1953125 9.16015625 C6 11 6 11 6 13 C5.34 13 4.68 13 4 13 C3.34 15.97 2.68 18.94 2 22 C-4 14.28571429 -4 14.28571429 -4 10 C-3.01 10 -2.02 10 -1 10 C-1 8.68 -1 7.36 -1 6 C-0.34 6 0.32 6 1 6 C0.67 4.02 0.34 2.04 0 0 Z " fill="#7F928D" transform="translate(723,110)"/>
<path d="M0 0 C0 0.99 0 1.98 0 3 C0.226729 4.45871431 0.45611365 5.91701721 0.6875 7.375 C1.0563202 10.61008007 1.04445502 11.88769258 -0.1875 15 C-2.14428257 17.15920836 -3.13994749 17.7041325 -6 18 C-6 15.36 -6 12.72 -6 10 C-6.66 9.67 -7.32 9.34 -8 9 C-5.36 6.03 -2.72 3.06 0 0 Z " fill="#B2AD93" transform="translate(163,68)"/>
<path d="M0 0 C0.66 0 1.32 0 2 0 C2.02505615 0.7113208 2.0501123 1.4226416 2.07592773 2.15551758 C2.19188439 5.37469517 2.31461245 8.59357985 2.4375 11.8125 C2.47681641 12.93205078 2.51613281 14.05160156 2.55664062 15.20507812 C2.59853516 16.27822266 2.64042969 17.35136719 2.68359375 18.45703125 C2.72025146 19.44678955 2.75690918 20.43654785 2.79467773 21.45629883 C2.90790331 24.1218351 2.90790331 24.1218351 4 27 C3.01 26.67 2.02 26.34 1 26 C0.67 25.34 0.34 24.68 0 24 C-0.66 24.33 -1.32 24.66 -2 25 C-1.85803484 22.14559413 -1.71154174 19.29153804 -1.5625 16.4375 C-1.52318359 15.63763672 -1.48386719 14.83777344 -1.44335938 14.01367188 C-1.19251844 9.28628494 -0.74678186 4.67523099 0 0 Z " fill="#7B949C" transform="translate(484,107)"/>
<path d="M0 0 C0.66 0.33 1.32 0.66 2 1 C1.26652344 1.64066406 0.53304687 2.28132813 -0.22265625 2.94140625 C-1.15980469 3.80636719 -2.09695312 4.67132813 -3.0625 5.5625 C-4.00222656 6.40941406 -4.94195312 7.25632812 -5.91015625 8.12890625 C-8.40655742 10.92693677 -8.40655742 10.92693677 -7.80859375 14.83984375 C-7.40833984 16.40412109 -7.40833984 16.40412109 -7 18 C-4.03 18.33 -1.06 18.66 2 19 C1.67 19.66 1.34 20.32 1 21 C-2.0625 21.625 -2.0625 21.625 -5 22 C-5 22.66 -5 23.32 -5 24 C-6.9140625 23.37890625 -6.9140625 23.37890625 -9 22 C-10.54513035 17.62213069 -10.77645715 13.56494271 -10 9 C-7.15678808 5.26349888 -3.86798134 2.63077114 0 0 Z " fill="#A5A084" transform="translate(90,92)"/>
<path d="M0 0 C2.33610148 2.33610148 2.27768438 2.82617666 2.4140625 5.99609375 C2.45281494 6.84872803 2.49156738 7.7013623 2.53149414 8.57983398 C2.56235107 9.52286377 2.59320801 10.46589355 2.625 11.4375 C2.66294678 12.41855713 2.70089355 13.39961426 2.73999023 14.41040039 C3.24864751 29.59745328 3.08465913 44.80694234 3 60 C2.67 60 2.34 60 2 60 C1.97716446 59.33458694 1.95432892 58.66917389 1.93080139 57.9835968 C1.69227831 51.05667524 1.44802232 44.12997268 1.20043945 37.20336914 C1.10879901 34.61845994 1.01861943 32.03349852 0.92993164 29.44848633 C0.80218577 25.73243746 0.66918399 22.01660819 0.53515625 18.30078125 C0.49656998 17.14540359 0.4579837 15.99002594 0.41822815 14.79963684 C0.37826218 13.71889389 0.3382962 12.63815094 0.29711914 11.5246582 C0.26380997 10.57645706 0.23050079 9.62825592 0.19618225 8.65132141 C0.05560558 5.96123019 0.05560558 5.96123019 -0.58106995 3.21720886 C-0.71931686 2.48552994 -0.85756378 1.75385101 -1 1 C-0.67 0.67 -0.34 0.34 0 0 Z " fill="#ADAEAE" transform="translate(70,51)"/>
<path d="M0 0 C5.61 0 11.22 0 17 0 C17.48828125 3.05989583 17.9765625 6.11979167 18.46484375 9.1796875 C18.85551159 11.93821546 18.85551159 11.93821546 20 14 C19.01 13.67 18.02 13.34 17 13 C15.63930056 9.41066525 14.90267559 5.73965603 14 2 C9.71 2 5.42 2 1 2 C0.67 3.32 0.34 4.64 0 6 C0 4.02 0 2.04 0 0 Z " fill="#A39A71" transform="translate(117,17)"/>
<path d="M0 0 C1.65 0 3.3 0 5 0 C5 8.58 5 17.16 5 26 C4.34 26 3.68 26 3 26 C2.67 17.75 2.34 9.5 2 1 C1.34 0.67 0.68 0.34 0 0 Z " fill="#7C8A75" transform="translate(454,105)"/>
<path d="M0 0 C0.66 0 1.32 0 2 0 C2 15.51 2 31.02 2 47 C1.67 47 1.34 47 1 47 C0.505 26.21 0.505 26.21 0 5 C-0.99 5.495 -0.99 5.495 -2 6 C-1.34 4.02 -0.68 2.04 0 0 Z " fill="#B39637" transform="translate(305,25)"/>
<path d="M0 0 C0.33 0 0.66 0 1 0 C1 3.63 1 7.26 1 11 C4.63 11 8.26 11 12 11 C12.04241723 13.33294775 12.04092937 15.66702567 12 18 C11 19 11 19 8.71484375 19.09765625 C7.34005859 19.08025391 7.34005859 19.08025391 5.9375 19.0625 C5.01839844 19.05347656 4.09929688 19.04445313 3.15234375 19.03515625 C2.44207031 19.02355469 1.73179687 19.01195313 1 19 C1 18.67 1 18.34 1 18 C3.97 17.67 6.94 17.34 10 17 C10 15.68 10 14.36 10 13 C6.7 12.67 3.4 12.34 0 12 C0 8.04 0 4.08 0 0 Z " fill="#9E9E73" transform="translate(543,93)"/>
<path d="M0 0 C0.90575383 3.34721486 1.10389209 6.27306478 1.0625 9.75 C1.05347656 10.73484375 1.04445313 11.7196875 1.03515625 12.734375 C1.02355469 13.48203125 1.01195312 14.2296875 1 15 C-0.65 14.67 -2.3 14.34 -4 14 C-4.33 15.32 -4.66 16.64 -5 18 C-6 16 -6 16 -4.78515625 12.3046875 C-4.21866415 10.82514342 -3.64408111 9.34867819 -3.0625 7.875 C-2.77181641 7.12089844 -2.48113281 6.36679688 -2.18164062 5.58984375 C-1.46125002 3.72391398 -0.73149596 1.8616042 0 0 Z " fill="#82948C" transform="translate(744,110)"/>
<path d="M0 0 C1.485 0.99 1.485 0.99 3 2 C3.3984375 4.0234375 3.3984375 4.0234375 3.375 6.375 C3.38273437 7.14585937 3.39046875 7.91671875 3.3984375 8.7109375 C2.91626225 11.48108156 1.81715572 12.89440686 0 15 C-0.19601608 13.25093341 -0.38147403 11.50068154 -0.5625 9.75 C-0.66691406 8.77546875 -0.77132813 7.8009375 -0.87890625 6.796875 C-0.98974468 4.2368648 -0.77738092 2.41851841 0 0 Z " fill="#809594" transform="translate(438,127)"/>
<path d="M0 0 C0.33 0 0.66 0 1 0 C1.04898438 1.25296875 1.09796875 2.5059375 1.1484375 3.796875 C1.22348583 5.44793821 1.29903277 7.09897881 1.375 8.75 C1.4059375 9.575 1.436875 10.4 1.46875 11.25 C1.50742187 12.04921875 1.54609375 12.8484375 1.5859375 13.671875 C1.6173584 14.4050293 1.6487793 15.13818359 1.68115234 15.89355469 C2.03772523 18.24922918 2.83662883 19.93450591 4 22 C2.02 22 0.04 22 -2 22 C-2 20.02 -2 18.04 -2 16 C-1.67 16 -1.34 16 -1 16 C-0.67 10.72 -0.34 5.44 0 0 Z " fill="#708783" transform="translate(619,124)"/>
<path d="M0 0 C2.58835467 1.64139565 3.62693766 2.32047909 5 5 C5.15001067 9.73069378 4.64009489 14.31653339 4 19 C3.01 18.67 2.02 18.34 1 18 C1.66 18 2.32 18 3 18 C3 17.01 3 16.02 3 15 C1.68 14.67 0.36 14.34 -1 14 C-0.67 13.34 -0.34 12.68 0 12 C0.66 12.33 1.32 12.66 2 13 C1.85851011 11.3954444 1.71164314 9.79136233 1.5625 8.1875 C1.48128906 7.29417969 1.40007812 6.40085937 1.31640625 5.48046875 C1.06510233 2.87256441 1.06510233 2.87256441 0 0 Z " fill="#ADA47A" transform="translate(91,73)"/>
<path d="M0 0 C-1.32 1.65 -2.64 3.3 -4 5 C-4 4.01 -4 3.02 -4 2 C-6.71224618 3.61268692 -9.37352812 5.24901874 -12 7 C-14.5625 7.3125 -14.5625 7.3125 -17 7 C-17.66 6.01 -18.32 5.02 -19 4 C-17.948125 4.0825 -16.89625 4.165 -15.8125 4.25 C-11.9647925 4.36287937 -11.9647925 4.36287937 -9.5 2 C-6.22370872 -0.62103303 -4.0843051 -0.32033766 0 0 Z " fill="#9F9A80" transform="translate(156,27)"/>
<path d="M0 0 C0.99 0 1.98 0 3 0 C3 2.97 3 5.94 3 9 C1.68 9.33 0.36 9.66 -1 10 C-1.02689216 8.52093108 -1.04634621 7.04172517 -1.0625 5.5625 C-1.07410156 4.73878906 -1.08570313 3.91507812 -1.09765625 3.06640625 C-1 1 -1 1 0 0 Z " fill="#BFBFBA" transform="translate(158,76)"/>
<path d="M0 0 C-0.50522222 4.37859255 -3.17827222 6.81651224 -6 10 C-6.66 9.01 -7.32 8.02 -8 7 C-6.13932792 2.84926997 -4.83061881 0 0 0 Z " fill="#A7AAAD" transform="translate(152,29)"/>
<path d="M0 0 C1.65 1.65 3.3 3.3 5 5 C4.34 6.98 3.68 8.96 3 11 C2.67 11 2.34 11 2 11 C1.67 14.3 1.34 17.6 1 21 C0.67 21 0.34 21 0 21 C0 14.07 0 7.14 0 0 Z " fill="#998D58" transform="translate(66,46)"/>
<path d="M0 0 C2.64 0 5.28 0 8 0 C8 0.99 8 1.98 8 3 C6.68 3 5.36 3 4 3 C4 5.64 4 8.28 4 11 C1.22157405 8.22157405 0.05528792 6.21633419 -0.125 2.25 C-0.063125 1.13625 -0.063125 1.13625 0 0 Z " fill="#8D9985" transform="translate(713,104)"/>
<path d="M0 0 C0 4.28451275 -2.52517284 6.16544203 -5.3125 9.125 C-5.81201172 9.67542969 -6.31152344 10.22585937 -6.82617188 10.79296875 C-9.17391824 13.32418139 -10.67579588 14.89193196 -14 16 C-12.34136495 11.67495164 -9.128959 8.90581175 -5.875 5.75 C-5.31167969 5.19570313 -4.74835938 4.64140625 -4.16796875 4.0703125 C-2.78313972 2.70895515 -1.39216796 1.35385141 0 0 Z " fill="#243E52" transform="translate(141,44)"/>
<path d="M0 0 C1.49080078 0.02707031 1.49080078 0.02707031 3.01171875 0.0546875 C3.77097656 0.07789062 4.53023437 0.10109375 5.3125 0.125 C5.3125 0.455 5.3125 0.785 5.3125 1.125 C4.35150391 1.11146484 4.35150391 1.11146484 3.37109375 1.09765625 C-1.75885366 1.27349647 -4.95578412 1.74523144 -8.6875 5.4375 C-10.852274 7.83644426 -12.34016107 10.19065127 -13.6875 13.125 C-14.25427765 9.27091196 -13.7239642 8.17526147 -11.375 4.9375 C-7.47809699 0.85934569 -5.52459091 -0.12999037 0 0 Z " fill="#9F8A39" transform="translate(607.6875,28.875)"/>
<path d="M0 0 C0.99 0 1.98 0 3 0 C3 2.31 3 4.62 3 7 C3.99 7.33 4.98 7.66 6 8 C3.36 8 0.72 8 -2 8 C-1.33333333 5.33333333 -0.66666667 2.66666667 0 0 Z " fill="#758E8F" transform="translate(361,138)"/>
<path d="M0 0 C0.33 0 0.66 0 1 0 C1.33 5.94 1.66 11.88 2 18 C2.33 18 2.66 18 3 18 C3 19.98 3 21.96 3 24 C2.01 23.67 1.02 23.34 0 23 C0 15.41 0 7.82 0 0 Z " fill="#71909F" transform="translate(622,122)"/>
<path d="M0 0 C0.33 0.99 0.66 1.98 1 3 C1.66 3 2.32 3 3 3 C1.66666667 6.33333333 0.33333333 9.66666667 -1 13 C-3.29013653 9.5647952 -3.17842973 8.014669 -3 4 C-2.01 4 -1.02 4 0 4 C0 2.68 0 1.36 0 0 Z " fill="#7F969A" transform="translate(745,121)"/>
<path d="M0 0 C0.66 0 1.32 0 2 0 C2 3.3 2 6.6 2 10 C0.68 9.34 -0.64 8.68 -2 8 C-2.125 5.125 -2.125 5.125 -2 2 C-1.34 1.34 -0.68 0.68 0 0 Z " fill="#B8B9B5" transform="translate(91,76)"/>
<path d="M0 0 C-1.55904675 3.82675111 -4.03166087 6.18007783 -7 9 C-7.66 9.66 -8.32 10.32 -9 11 C-9.99 10.67 -10.98 10.34 -12 10 C-10.38113585 8.32737283 -8.7547271 6.66204463 -7.125 5 C-6.22007812 4.071875 -5.31515625 3.14375 -4.3828125 2.1875 C-2 0 -2 0 0 0 Z " fill="#243D4A" transform="translate(155,80)"/>
<path d="M0 0 C0.80859375 1.671875 0.80859375 1.671875 1 4 C-1.08984375 6.578125 -1.08984375 6.578125 -3.9375 9.25 C-4.87464844 10.14203125 -5.81179687 11.0340625 -6.77734375 11.953125 C-7.51082031 12.62859375 -8.24429688 13.3040625 -9 14 C-9.66 13.67 -10.32 13.34 -11 13 C-10.06027344 11.96939453 -10.06027344 11.96939453 -9.1015625 10.91796875 C-8.28429687 10.01691406 -7.46703125 9.11585937 -6.625 8.1875 C-5.81289062 7.29417969 -5.00078125 6.40085937 -4.1640625 5.48046875 C-1.90927093 3.00367326 -1.90927093 3.00367326 0 0 Z " fill="#273D48" transform="translate(168,13)"/>
<path d="M0 0 C0.69738281 0.01353516 1.39476562 0.02707031 2.11328125 0.04101562 C3.82585541 0.0762055 5.53802941 0.13000845 7.25 0.1875 C7.25 0.5175 7.25 0.8475 7.25 1.1875 C6.03763672 1.24357422 6.03763672 1.24357422 4.80078125 1.30078125 C3.73214844 1.36652344 2.66351562 1.43226563 1.5625 1.5 C0.50675781 1.55800781 -0.54898438 1.61601562 -1.63671875 1.67578125 C-5.02726125 2.23307243 -7.01666252 3.12759349 -9.75 5.1875 C-10.63658466 7.77872743 -10.63658466 7.77872743 -10.75 10.1875 C-11.08 10.1875 -11.41 10.1875 -11.75 10.1875 C-12 6.875 -12 6.875 -11.75 3.1875 C-8.4450216 -0.52216963 -4.62758904 -0.1705822 0 0 Z " fill="#B0A461" transform="translate(584.75,126.8125)"/>
<path d="M0 0 C-0.639375 0.2475 -1.27875 0.495 -1.9375 0.75 C-4.18741541 1.81562433 -4.18741541 1.81562433 -4.75 4.125 C-4.8325 4.74375 -4.915 5.3625 -5 6 C-2.69 6 -0.38 6 2 6 C2 6.33 2 6.66 2 7 C-0.64 7.33 -3.28 7.66 -6 8 C-7.4606285 5.35261084 -8 4.10551666 -8 1 C-4.93251126 -0.86240388 -3.40254489 -1.2151946 0 0 Z " fill="#8B957B" transform="translate(575,106)"/>
<path d="M0 0 C0.33 0.66 0.66 1.32 1 2 C-0.32 3.65 -1.64 5.3 -3 7 C0.3 7.33 3.6 7.66 7 8 C7 8.33 7 8.66 7 9 C2.38 9 -2.24 9 -7 9 C-5.76465298 5.29395893 -3.80264776 3.66251537 -1 1 C-0.67 0.67 -0.34 0.34 0 0 Z " fill="#314245" transform="translate(141,93)"/>
<path d="M0 0 C0.99386719 0.00902344 1.98773438 0.01804687 3.01171875 0.02734375 C4.15060547 0.04474609 4.15060547 0.04474609 5.3125 0.0625 C5.3125 0.3925 5.3125 0.7225 5.3125 1.0625 C4.35150391 1.10117188 4.35150391 1.10117188 3.37109375 1.140625 C-2.81241574 1.54610103 -6.46623597 2.79920998 -11.6875 6.0625 C-12.3475 5.7325 -13.0075 5.4025 -13.6875 5.0625 C-8.96634943 1.10694142 -6.13570882 -0.07218481 0 0 Z " fill="#969A77" transform="translate(426.6875,102.9375)"/>
<path d="M0 0 C0.66 0.33 1.32 0.66 2 1 C1.360625 1.825 0.72125 2.65 0.0625 3.5 C-2.46413081 7.23191406 -2.69360228 10.55723303 -3 15 C-3.33 15 -3.66 15 -4 15 C-4.63019694 5.98468271 -4.63019694 5.98468271 -2 1.875 C-1.34 1.25625 -0.68 0.6375 0 0 Z " fill="#8B9887" transform="translate(568,124)"/>
<path d="M0 0 C0.66 0.33 1.32 0.66 2 1 C0.90344712 2.31886772 -0.20253423 3.62990057 -1.3125 4.9375 C-1.92738281 5.66839844 -2.54226563 6.39929688 -3.17578125 7.15234375 C-5 9 -5 9 -8 10 C-6.34908222 5.70761377 -3.26245434 3.1206085 0 0 Z " fill="#263F4E" transform="translate(748,22)"/>
<path d="M0 0 C2.015625 1.453125 2.015625 1.453125 4 4 C4.36308003 6.9556515 4.05847259 9.79747665 3.75 12.75 C3.68425781 13.54277344 3.61851563 14.33554688 3.55078125 15.15234375 C3.38624584 17.10326366 3.19565518 19.05195497 3 21 C2.67 21 2.34 21 2 21 C1.93941406 19.81921875 1.87882812 18.6384375 1.81640625 17.421875 C1.73197418 15.8645723 1.64732751 14.30728121 1.5625 12.75 C1.52318359 11.97269531 1.48386719 11.19539063 1.44335938 10.39453125 C1.40146484 9.64042969 1.35957031 8.88632812 1.31640625 8.109375 C1.27974854 7.41811523 1.24309082 6.72685547 1.20532227 6.01464844 C0.99324476 3.93371671 0.55491323 2.01427578 0 0 Z " fill="#999791" transform="translate(71,51)"/>
<path d="M0 0 C0.99 0.33 1.98 0.66 3 1 C0 4 -3 7 -6 10 C-6.66 9.67 -7.32 9.34 -8 9 C-5.36 6.03 -2.72 3.06 0 0 Z " fill="#8F8D77" transform="translate(174,56)"/>
<path d="M0 0 C2.8125 -0.25 2.8125 -0.25 6 0 C7.875 2 7.875 2 9 4 C7.68 4 6.36 4 5 4 C4.67 4.66 4.34 5.32 4 6 C2.68 4.02 1.36 2.04 0 0 Z " fill="#978F68" transform="translate(95,27)"/>
<path d="M0 0 C0.66 0.33 1.32 0.66 2 1 C-1.3 4.3 -4.6 7.6 -8 11 C-8 7.0234755 -6.61988497 5.9109833 -4 3 C-1.75 1.1875 -1.75 1.1875 0 0 Z " fill="#31454B" transform="translate(593,22)"/>
<path d="M0 0 C0.33 0 0.66 0 1 0 C1 2.97 1 5.94 1 9 C0.01 9 -0.98 9 -2 9 C-2.125 5.625 -2.125 5.625 -2 2 C-1.34 1.34 -0.68 0.68 0 0 Z " fill="#BAA455" transform="translate(184,140)"/>
<path d="M0 0 C0 2.31 0 4.62 0 7 C-0.99 7 -1.98 7 -3 7 C-3 5.68 -3 4.36 -3 3 C-4.65 2.67 -6.3 2.34 -8 2 C-8 1.67 -8 1.34 -8 1 C-5.23735711 0.40267181 -2.83967231 0 0 0 Z " fill="#839488" transform="translate(555,138)"/>
<path d="M0 0 C2.35119399 3.52679099 2.21443452 5.02879485 2.125 9.1875 C2.10695313 10.27417969 2.08890625 11.36085938 2.0703125 12.48046875 C2.03550781 13.72763672 2.03550781 13.72763672 2 15 C1.67 15 1.34 15 1 15 C0.67 13.02 0.34 11.04 0 9 C-0.33 9 -0.66 9 -1 9 C-1.125 2.25 -1.125 2.25 0 0 Z " fill="#7C96A3" transform="translate(510,92)"/>
<path d="M0 0 C0.66 0 1.32 0 2 0 C2 4.95 2 9.9 2 15 C1.67 15 1.34 15 1 15 C0.67 11.7 0.34 8.4 0 5 C-0.99 5.495 -0.99 5.495 -2 6 C-1.34 4.02 -0.68 2.04 0 0 Z " fill="#A08A38" transform="translate(305,25)"/>
<path d="M0 0 C0.66 0 1.32 0 2 0 C2 1.65 2 3.3 2 5 C2.66 5.33 3.32 5.66 4 6 C1.69 6 -0.62 6 -3 6 C-2 3 -2 3 0 0 Z " fill="#79908C" transform="translate(512,140)"/>
<path d="M0 0 C0.66 0.33 1.32 0.66 2 1 C-0.64 3.97 -3.28 6.94 -6 10 C-6 6.41087588 -5.33563446 5.89142971 -3 3.3125 C-2.443125 2.68988281 -1.88625 2.06726563 -1.3125 1.42578125 C-0.879375 0.95527344 -0.44625 0.48476562 0 0 Z " fill="#8A9A90" transform="translate(255,95)"/>
<path d="M0 0 C0.66 0.66 1.32 1.32 2 2 C-0.31 4.64 -2.62 7.28 -5 10 C-5.33 9.34 -5.66 8.68 -6 8 C-5.0625 5.875 -5.0625 5.875 -4 4 C-3.34 4 -2.68 4 -2 4 C-1.34 2.68 -0.68 1.36 0 0 Z " fill="#A29F8D" transform="translate(169,72)"/>
<path d="M0 0 C0.66 0.33 1.32 0.66 2 1 C1.07038578 2.15224028 0.1309875 3.29659176 -0.8125 4.4375 C-1.59560547 5.39462891 -1.59560547 5.39462891 -2.39453125 6.37109375 C-4 8 -4 8 -7 9 C-5.44499019 5.18315774 -2.96404505 2.80804268 0 0 Z " fill="#2F4146" transform="translate(469,23)"/>
<path d="M0 0 C0.5775 0.226875 1.155 0.45375 1.75 0.6875 C0.6671875 1.30625 0.6671875 1.30625 -0.4375 1.9375 C-3.22969862 3.67486803 -5.72012585 5.59131857 -8.25 7.6875 C-6.86345583 3.41232214 -5.12511737 -0.71182186 0 0 Z " fill="#C1A84A" transform="translate(320.25,112.3125)"/>
<path d="M0 0 C2.64 0 5.28 0 8 0 C5.33333333 2 2.66666667 4 0 6 C0 4.02 0 2.04 0 0 Z " fill="#718784" transform="translate(617,105)"/>
<path d="M0 0 C0.66 0.33 1.32 0.66 2 1 C-0.64 3.64 -3.28 6.28 -6 9 C-6 5.06368636 -4.57142871 3.87394974 -2 1 C-1.34 0.67 -0.68 0.34 0 0 Z " fill="#AB9239" transform="translate(479,31)"/>
<path d="M0 0 C0.33 0 0.66 0 1 0 C1 2.31 1 4.62 1 7 C2.32 6.67 3.64 6.34 5 6 C5 6.66 5 7.32 5 8 C2.69 8.33 0.38 8.66 -2 9 C-1.34 6.03 -0.68 3.06 0 0 Z " fill="#8F9980" transform="translate(729,144)"/>
<path d="M0 0 C-1.49097658 3.7952131 -3.75700849 5.61042731 -7 8 C-4.18918919 0 -4.18918919 0 0 0 Z " fill="#AB9238" transform="translate(824,33)"/>
<path d="M0 0 C0.5775 0.226875 1.155 0.45375 1.75 0.6875 C0.6671875 1.30625 0.6671875 1.30625 -0.4375 1.9375 C-3.22969862 3.67486803 -5.72012585 5.59131857 -8.25 7.6875 C-6.86345583 3.41232214 -5.12511737 -0.71182186 0 0 Z " fill="#A99038" transform="translate(541.25,31.3125)"/>
<path d="M0 0 C0.66 0 1.32 0 2 0 C2.33 0.66 2.66 1.32 3 2 C3.99 2 4.98 2 6 2 C4.6875 3.5 4.6875 3.5 3 5 C2.01 5 1.02 5 0 5 C-0.5625 3.0625 -0.5625 3.0625 -1 1 C-0.67 0.67 -0.34 0.34 0 0 Z " fill="#C5C4B9" transform="translate(112,41)"/>
<path d="M0 0 C0.66 0 1.32 0 2 0 C2.33 1.98 2.66 3.96 3 6 C2.67 5.34 2.34 4.68 2 4 C0.68 4 -0.64 4 -2 4 C-1.34 2.68 -0.68 1.36 0 0 Z " fill="#7B9297" transform="translate(393,109)"/>
<path d="M0 0 C1.65 0 3.3 0 5 0 C5 2.31 5 4.62 5 7 C4.01 6.67 3.02 6.34 2 6 C2.66 6 3.32 6 4 6 C4 5.01 4 4.02 4 3 C2.68 2.67 1.36 2.34 0 2 C0 1.34 0 0.68 0 0 Z " fill="#9E8F4D" transform="translate(90,85)"/>
<path d="M0 0 C0.66 0 1.32 0 2 0 C1.40072174 3.35595828 0.15377564 5.37801226 -2 8 C-2.125 5.125 -2.125 5.125 -2 2 C-1.34 1.34 -0.68 0.68 0 0 Z " fill="#AFB0B0" transform="translate(91,76)"/>
<path d="M0 0 C0.99 0.33 1.98 0.66 3 1 C0.03 3.475 0.03 3.475 -3 6 C-3 3 -3 3 -1.5 1.3125 C-0.7575 0.6628125 -0.7575 0.6628125 0 0 Z " fill="#2B3D42" transform="translate(131,54)"/>
</svg>
